<svg width="26" height="26" viewBox="0 0 26 26" fill="none" xmlns="http://www.w3.org/2000/svg">
<g clip-path="url(#clip0_40_170)">
<path d="M23.8333 9.20833C23.8334 10.1806 23.6322 11.1424 23.2423 12.033C22.8524 12.9237 22.2823 13.724 21.5679 14.3835C20.8534 15.0429 20.0102 15.5473 19.0912 15.8648C18.1722 16.1823 17.1975 16.3061 16.2283 16.2283C16.0927 14.5612 15.369 12.9965 14.1862 11.8138C13.0035 10.631 11.4388 9.90724 9.77166 9.77166C9.6974 8.82709 9.81454 7.87724 10.116 6.97901C10.4176 6.08078 10.8972 5.25263 11.5264 4.54416C12.1555 3.83569 12.9211 3.26147 13.7774 2.85589C14.6337 2.45032 15.5631 2.22172 16.5098 2.18379C17.4565 2.14586 18.4012 2.29939 19.2872 2.63517C20.1732 2.97095 20.9823 3.48208 21.6661 4.13795C22.3498 4.79382 22.8942 5.58094 23.2666 6.45218C23.639 7.32341 23.8318 8.26084 23.8333 9.20833Z" stroke="black" stroke-width="2.5" stroke-linecap="round" stroke-linejoin="round"/>
<path d="M16.2498 16.7917C16.2498 18.6592 15.508 20.4503 14.1874 21.7709C12.8668 23.0914 11.0757 23.8333 9.20817 23.8333C7.3406 23.8333 5.54953 23.0914 4.22896 21.7709C2.90839 20.4503 2.1665 18.6592 2.1665 16.7917C2.1665 14.9241 2.90839 13.133 4.22896 11.8125C5.54953 10.4919 7.3406 9.75 9.20817 9.75C11.0757 9.75 12.8668 10.4919 14.1874 11.8125C15.508 13.133 16.2498 14.9241 16.2498 16.7917Z" stroke="black" stroke-width="2.5" stroke-linecap="round" stroke-linejoin="round"/>
<path d="M8.255 15.8383L9.20833 14.0833L10.1617 15.8383L11.9167 16.7917L10.1617 17.745L9.20833 19.5L8.255 17.745L6.5 16.7917L8.255 15.8383Z" stroke="black" stroke-width="2.5" stroke-linecap="round" stroke-linejoin="round"/>
</g>
<defs>
<clipPath id="clip0_40_170">
<rect width="26" height="26" fill="white"/>
</clipPath>
</defs>
</svg>
