<svg width="57" height="54" viewBox="0 0 57 54" fill="none" xmlns="http://www.w3.org/2000/svg">
<path d="M7.125 26H28.5V29.375H7.125V26ZM3.5625 17.5625H21.375V20.9375H3.5625V17.5625Z" fill="#00CC39"/>
<path d="M53.2931 27.0226L47.9493 15.2101C47.8122 14.9065 47.5839 14.6477 47.2929 14.4659C47.0019 14.2841 46.6609 14.1873 46.3123 14.1875H40.9686V10.8125C40.9686 10.3649 40.7809 9.93573 40.4469 9.61926C40.1128 9.30279 39.6598 9.125 39.1873 9.125H10.6873V12.5H37.4061V33.6882C36.5944 34.1348 35.8841 34.7291 35.3161 35.4369C34.748 36.1448 34.3336 36.9521 34.0965 37.8125H22.9031C22.4696 36.2218 21.4385 34.8354 20.0033 33.9134C18.568 32.9913 16.827 32.5968 15.1066 32.8038C13.3863 33.0108 11.8047 33.8051 10.6583 35.0379C9.51187 36.2706 8.87939 37.8571 8.87939 39.5C8.87939 41.1429 9.51187 42.7294 10.6583 43.9621C11.8047 45.1949 13.3863 45.9892 15.1066 46.1962C16.827 46.4032 18.568 46.0087 20.0033 45.0866C21.4385 44.1646 22.4696 42.7782 22.9031 41.1875H34.0965C34.484 42.6358 35.3702 43.9203 36.6148 44.8379C37.8595 45.7554 39.3915 46.2536 40.9686 46.2536C42.5457 46.2536 44.0777 45.7554 45.3224 44.8379C46.567 43.9203 47.4532 42.6358 47.8406 41.1875H51.6561C52.1285 41.1875 52.5816 41.0097 52.9156 40.6932C53.2497 40.3768 53.4373 39.9476 53.4373 39.5V27.6875C53.4374 27.4589 53.3883 27.2327 53.2931 27.0226ZM16.0311 42.875C15.3265 42.875 14.6377 42.6771 14.0519 42.3062C13.466 41.9354 13.0094 41.4083 12.7398 40.7916C12.4701 40.1749 12.3996 39.4963 12.537 38.8416C12.6745 38.1869 13.0138 37.5855 13.512 37.1135C14.0102 36.6415 14.645 36.3201 15.3361 36.1898C16.0271 36.0596 16.7434 36.1265 17.3944 36.3819C18.0454 36.6374 18.6017 37.0699 18.9932 37.6249C19.3846 38.18 19.5936 38.8325 19.5936 39.5C19.5926 40.3948 19.217 41.2528 18.5491 41.8855C17.8812 42.5182 16.9756 42.8741 16.0311 42.875ZM40.9686 17.5625H45.1367L48.9557 26H40.9686V17.5625ZM40.9686 42.875C40.264 42.875 39.5752 42.6771 38.9894 42.3062C38.4035 41.9354 37.9469 41.4083 37.6773 40.7916C37.4076 40.1749 37.3371 39.4963 37.4745 38.8416C37.612 38.1869 37.9513 37.5855 38.4495 37.1135C38.9477 36.6415 39.5825 36.3201 40.2736 36.1898C40.9646 36.0596 41.6809 36.1265 42.3319 36.3819C42.9829 36.6374 43.5392 37.0699 43.9307 37.6249C44.3221 38.18 44.5311 38.8325 44.5311 39.5C44.5301 40.3948 44.1545 41.2528 43.4866 41.8855C42.8187 42.5182 41.9131 42.8741 40.9686 42.875ZM49.8748 37.8125H47.8406C47.4483 36.367 46.5607 35.0858 45.317 34.1696C44.0734 33.2535 42.544 32.7542 40.9686 32.75V29.375H49.8748V37.8125Z" fill="#00CC39"/>
</svg>
