<svg width="55" height="60" viewBox="0 0 55 60" fill="none" xmlns="http://www.w3.org/2000/svg">
<path d="M49.8278 30.8274L29.2028 5.82738C28.3343 4.77238 26.666 4.77238 25.7974 5.82738L5.17242 30.8274C4.87555 31.1864 4.68068 31.6317 4.61152 32.1093C4.54236 32.5868 4.60187 33.076 4.78283 33.5174C5.1495 34.4199 5.96992 34.9999 6.87513 34.9999H11.4585V52.4999C11.4585 53.1629 11.6999 53.7988 12.1297 54.2677C12.5594 54.7365 13.1423 54.9999 13.7501 54.9999H20.6251C21.2329 54.9999 21.8158 54.7365 22.2456 54.2677C22.6753 53.7988 22.9168 53.1629 22.9168 52.4999V42.4999H32.0835V52.4999C32.0835 53.1629 32.3249 53.7988 32.7547 54.2677C33.1844 54.7365 33.7673 54.9999 34.3751 54.9999H41.2501C41.8579 54.9999 42.4408 54.7365 42.8706 54.2677C43.3004 53.7988 43.5418 53.1629 43.5418 52.4999V34.9999H48.1251C48.5689 35.0019 49.0037 34.8631 49.3765 34.6002C49.7492 34.3374 50.0438 33.9619 50.2243 33.5196C50.4048 33.0773 50.4634 32.5872 50.393 32.1092C50.3226 31.6312 50.1262 31.1858 49.8278 30.8274Z" fill="black" fill-opacity="0.5"/>
</svg>
