<svg width="253" height="108" viewBox="0 0 253 108" fill="none" xmlns="http://www.w3.org/2000/svg">
<path d="M53.6667 18C53.9167 17.8333 54.0833 17.5833 54.0833 17.25L54.9167 17.4167C54.6667 17.6667 54.6667 17.9167 54.5 18.1667L54.8333 18.4167C55 18.4167 55.0833 18.5 55.0833 18.6667C55.0833 19 54.8333 19.3333 54.6667 19.5833C54.9167 19.6667 55.25 19.5833 55.4167 19.6667C55.5833 19.9167 55 20.5 54.75 20.75C54.75 21.0833 54.5833 21.4167 54.4167 21.4167L54 22V22.75L54.25 22.5L54.5833 21.8333C54.6667 21.6667 54.8333 21.5833 54.9167 21.5833C54.9167 21.6667 54.75 21.9167 54.75 22.0833C55.0833 22.5 53.75 23.3333 54.0833 23.75L53.75 24.3333C53.75 24.5 53.6667 24.75 53.5833 25C53.9167 24.5833 54.3333 24.0833 54.3333 23.5L55 23.75L54.8333 24.6667L55.25 24.5833L55.6667 25.0833L55.25 26.3333C54.5833 26.9167 54.25 27.9167 53.75 28.4167H53.5833V28.6667L53.0833 29.5C53.0833 30.25 52.25 30.5833 52.25 31.5C52.0833 31.75 51.5 33.0833 51.3333 33.0833C51.3333 33.3333 51.3333 33.6667 51.25 34H51.3333C51.4167 34.0833 51.4167 34.1667 51.25 34.25H51.0833C51 34.5 50.8333 34.5833 50.6667 34.5833C50.6667 35.1667 50.3333 35.6667 50.3333 36.25L50.8333 36.9167C50.9167 36.9167 51 36.9167 51 37C51 37.1667 50.8333 37.4167 50.6667 37.5C50.6667 37.75 50.5833 38 50.25 38H50L49.9167 38.9167L49.0833 40.5L48.75 40.75C48.75 41.25 48.4167 41.9167 48.1667 42.4167V43.4167L47.5 44L47.1667 44.8333L46.6667 45.25C46.6667 45.8333 46.0833 46 46.0833 46.6667L45.3333 48.0833C44.75 48.0833 45.0833 49.4167 44.3333 49.4167L44.4167 47.0833L43.9167 46.9167L43.5833 47.5C43.4167 48.0833 42.9167 49.75 42.9167 50.3333C42.9167 51.0833 42.8333 51 42 51L41.9167 51.25C42.0833 51.4167 42.4167 52 41.9167 52C41.8333 52 41.4167 52.0833 41.4167 52.1667V52.25L42.5833 52.9167C43 52.5 43.1667 51.8333 43.1667 51.25C43.4167 51 43.5 50.75 43.5 50.4167L43.8333 49.6667C43.8333 49.5833 43.8333 49.3333 43.9167 49.3333C44.25 49.3333 44.5 50.1667 44.5 50.4167C44.5 50.5 44.5 50.6667 44.3333 50.6667C44.1667 51.3333 43.75 52.5833 43.1667 53.0833C43.1667 53.4167 42.9167 53.5 42.9167 53.8333C42.6667 54.4167 42.3333 55.0833 41.9167 55.5833C41.9167 55.75 41.8333 56 41.6667 56C41.3333 56 41.4167 55.25 41.4167 55.0833L40.75 55.3333L40.6667 56.1667L39.9167 57.6667H39.8333L39.1667 59.1667C39 59.25 39.0833 59.9167 39.0833 60C39.25 59.75 39.5833 60.25 39.3333 60.3333C39.25 60.3333 39.0833 60.3333 39.0833 60.5C39.0833 60.6667 39.3333 60.9167 39.5 61.0833C39.5 61.3333 39 62.5 38.8333 62.5C38.8333 63.0833 38.8333 63.1667 38.25 63.1667V64.0833C37.8333 63.8333 37.4167 63.5 37.1667 63.0833C37.1667 63.25 37.1667 63.4167 37.0833 63.5833L37.5833 64.4167C37.4167 64.8333 36.6667 67.75 35.8333 67.75C35.8333 68 35.5 69 35.25 69C35.1667 69 35.1667 68.75 35.1667 68.75L34.8333 68.6667L34.5833 69L35.1667 69.5833C35.1667 70.5 34.75 71.1667 34.25 71.8333C34.25 72 34.75 73.1667 34.5 73.1667C34.25 73.1667 34.0833 73 33.9167 72.8333C33.9167 73.4167 33.75 74.25 33.4167 74.6667L33 74L33.25 73.1667C33.1667 73.0833 33 73 33 72.9167C33 72.75 33.5 72.75 33.5833 72.75C33.5833 72.25 33.8333 71.6667 34.0833 71.1667C34.0833 71.0833 34 70.8333 33.9167 70.75L33.3333 71.5L32.9167 71.5833V72.75C32.3333 73.1667 31.8333 74.4167 31.6667 75C31.6667 75.3333 31.3333 75.5 31.3333 75.8333L31.0833 76.5H31.1667C31.1667 76.8333 30.8333 77 30.8333 77.3333C30.8333 77.5833 30.8333 77.8333 30.5 77.8333C30.5 78.3333 30.5 78.4167 30 78.4167V79.3333L29.5833 79.1667L29.0833 80.3333L29.25 80.5L28.9167 80.75L28.75 81.0833L29 81.6667L28.9167 82.3333C28.4167 82.3333 28.8333 83 28 83V82.5833L27.75 82.6667C27.6667 82.8333 27.3333 83.75 27.25 83.75C27.1667 83.75 27.1667 83.5833 27.1667 83.5833C26.6667 83.5833 27 83.1667 27.1667 83L26.8333 82.25L27.1667 81.6667L26.5833 81.4167C26.5833 82 26 82.3333 26 83C25.5 83.6667 25.0833 84.4167 24.6667 85.0833C24.5833 85.4167 24.3333 86.4167 23.9167 86.4167C23.9167 86.5 24.1667 87.0833 24.1667 87.0833C24.25 87.0833 24.25 86.8333 24.25 86.8333C24.6667 85.8333 25.5833 85 25.6667 83.9167H26.0833C26.4167 83.9167 27.1667 83.9167 27.1667 84.3333C27.1667 85.0833 26.75 85.8333 26.3333 86.4167C26.3333 86.8333 26.5833 87.0833 26.5833 87.5L26 87.3333C26 87.8333 25.9167 88.5 25.5833 89L25.1667 88.4167L25.4167 87.6667C25.3333 87.5833 25.1667 87.5 25.1667 87.4167C25.1667 87.25 25.5833 87.25 25.6667 87.25L26.1667 85.8333L26.0833 85.5L25.75 85.0833L25.3333 85.5L25.0833 87.25C24.5833 87.6667 24.0833 88.75 23.9167 89.3333C23.9167 89.9167 23.5833 90.4167 23.4167 91C23 91.3333 22.6667 91.75 22.3333 92.1667L21.75 93.8333C21.6667 93.8333 21.4167 93.8333 21.4167 94C21.4167 94.0833 21.6667 94.25 21.75 94.3333L20.8333 94.8333H20.25C20.25 94.1667 20.5833 93.8333 20.4167 92.6667C20.0833 93.1667 19.6667 93.5833 19.6667 94.25C19.25 94.5833 18.9167 94.9167 18.5833 95.3333C17.5 95.3333 18.5 96.3333 17.8333 96.3333H17.5C17.5 96.8333 17.1667 96.9167 17.1667 97.3333L16.5833 97.8333L16.25 97.1667C16.0833 97.1667 16 97.0833 16 96.9167C16 96.25 16.5833 95.6667 16.5833 94.9167C16.5833 94.9167 16.5833 94.75 16.5 94.75C16.4167 94.75 16.25 95.25 16.1667 95.3333C16.0833 95.4167 16 95.5 16 95.5833C16 95.8333 16.0833 96.0833 15.75 96.0833L15.4167 96.25L14.5833 96.3333L14.3333 97C14.0833 97.0833 13.8333 97.3333 13.6667 97.5C13.5 97.5 13.25 97.5833 13.25 97.8333L13.3333 98.1667H12.5833C12.5833 97.9167 13.1667 96.9167 12.75 96.9167C12.5833 96.9167 12.4167 97.0833 12.3333 97.1667L12.1667 98.1667L11.75 98.75C11.75 99.25 11.5833 99.5833 11.25 99.9167V100.583C11 100.833 10.9167 101.167 10.9167 101.5C10.6667 101.417 10.3333 101.583 10.3333 101.917L9.83333 102.667L9.16667 102.417C9.41667 101.917 9.33333 101 9.66667 100.667C9.66667 100.417 9.75 100.25 10 100.25C10.25 100.25 11.3333 100.333 10.5833 99.9167L10.9167 99.0833H10.5833L10.9167 98.6667V97.8333L11.5 97.4167V96.6667C11.6667 96.4167 11.8333 96.1667 12.0833 96L12.3333 95.3333C11.75 95.3333 12.25 93.6667 12.3333 93.5C12.6667 93.5 12.5833 92.5 12.5833 92.3333C12.8333 92.25 12.9167 91.9167 12.9167 91.6667C12.9167 91.3333 12.5833 91.25 12.5833 90.9167C11.8333 90.9167 12.4167 92.4167 11.75 92.4167C11.75 92.9167 11.3333 93.4167 10.9167 93.6667V94.75C9.33333 95.5 9.66667 96.1667 9 97.8333C8.41667 97.8333 8.08333 98.4167 7.5 98.4167V99.3333H7.25C6.91667 99.3333 6.91667 99.1667 6.91667 98.8333L7.16667 98.1667C7.16667 98.0833 7 97.5833 6.91667 97.5833V97.8333C6.58333 98.0833 5.83333 98.6667 5.83333 99.0833C5.58333 99.25 5.5 99.6667 5.5 100L4.91667 100.333C4.91667 100.583 4.83333 101 4.58333 101.167V101.833L4.25 102.083C4.25 102.583 3.83333 103.083 3.41667 103.417C3.08333 103.917 2.58333 104.75 2.08333 105.167C2.08333 105.417 2.08333 105.75 1.83333 105.917C1.83333 106.417 1.5 107 1.16667 107.333C1.16667 107.5 1.08333 107.667 0.916666 107.667L0.666666 107.583L0.916666 106.75C1.08333 106.583 1.16667 106.25 1.16667 106L1.5 105.25C1.5 104.917 1.33333 104.25 1.83333 104.25C1.83333 102.75 3 99.9167 4 98.75C4 98.1667 4.25 97.75 4.25 97.1667C4.5 97.1667 4.58333 96.9167 4.58333 96.6667C4.58333 95.9167 4.91667 96.1667 4.91667 95.6667L5.33333 94.8333C5.58333 94.75 5.66667 94.5 5.66667 94.25L5.58333 93.8333L6.33333 91.25L6.66667 91L6.91667 90.5833C6.91667 90.3333 7 89.9167 7.16667 89.75C7.08333 89.5 7.08333 88.75 7.5 88.75C7.5 88.4167 8.33333 86.75 8.58333 86.75L8.83333 86.1667C8.83333 85.0833 9.41667 84.5 9.41667 83.4167L9.66667 83.0833C9.66667 82.5 10.5833 81.5 10.5833 80.9167C11.1667 80.6667 10.6667 79.6667 11.25 79.4167C11.25 79.1667 12.5 75.6667 12.5833 75.5833C12.5 75.3333 12.5 74.8333 12.9167 74.8333C13.3333 73.6667 14.5 72.4167 14.5 71.1667C14.5833 71.0833 14.8333 71 14.8333 70.8333C14.8333 70.75 14.5833 70.75 14.5833 70.75L14.8333 70L15.1667 69.8333C15.5 69.4167 15.75 68.4167 15.9167 67.9167C15.8333 67.5833 15.9167 67.25 16.3333 67.25L16.5833 66.6667C16.75 66.5 17.1667 65 17.1667 64.75C17.1667 64.1667 17.75 64.1667 17.75 63.5833L18.4167 62.4167C18.4167 62.25 19.3333 60.0833 19.3333 60.0833C19.3333 59.75 19.1667 59.25 19.6667 59.25C20.0833 58.0833 21.4167 56.5833 21.4167 55.25C21.5 55.1667 21.75 55 21.75 54.9167C21.75 54.75 21.5833 54.75 21.5 54.75L21.75 54C22 53.8333 22.25 53.5833 22.4167 53.3333L22.9167 51.6667C22.8333 51.3333 23 51 23.4167 51C23.4167 50.6667 23.6667 50.6667 23.6667 50.3333C23.75 50.25 24.3333 48.4167 24.3333 48.25C24.3333 47.6667 24.9167 47.5833 24.9167 47L25.25 46.3333C25.25 45.9167 25.75 45.8333 25.75 45.4167C26 45.4167 26.1667 45.25 26.25 45C26.25 44.9167 26.25 44.9167 26.1667 44.8333L26.3333 44.5833C26.4167 44.4167 26.4167 44.3333 26.4167 44.1667C27.0833 43.1667 27.5833 42 28 40.8333C28 40.6667 28.5833 39.3333 28.6667 39.3333C28.6667 38.75 29 38.3333 29.25 37.8333L29.5833 37.5833C29.5833 37.5 29.6667 37.4167 29.6667 37.3333C29.75 37.0833 29.75 36.9167 29.75 36.6667C29.8333 36.6667 29.9167 36.5833 29.9167 36.5C29.9167 36.4167 30 36.25 30 36.1667H30.0833C30.0833 36.0833 30.1667 36 30.25 35.9167L30.5 35.1667C30.5833 34.8333 30.5833 34.4167 30.5833 34.25C30.75 34.25 31 34.25 31 34C31 33.75 31 33.6667 31.3333 33.6667L31.6667 33L32 32.75L32.5833 31.6667C32.5833 31.3333 32.9167 31.1667 32.9167 30.8333L33.3333 30.1667L33.5833 29.6667C33.6667 29.0833 33.8333 28.5 34.1667 28.0833C34.5833 27 34.8333 25.9167 34.9167 25.3333C35 25.4167 35.0833 25.4167 35.1667 25.4167L35.5 25.1667C35.5833 25.0833 35.5833 24.9167 35.4167 24.8333C35.8333 24.3333 36.5 23.1667 36.5 22.5C36.75 22.3333 36.9167 22.0833 36.75 21.8333C36.8333 21.25 37.3333 21.0833 37.5833 20.75C37.8333 20.5833 37.75 20.4167 37.6667 20.25L38.4167 18.9167C38.5 18.75 38.75 18.5 38.75 18.1667C39.5833 17.25 39.75 15.75 40.75 14.9167L40.6667 14.3333L41.5833 12.9167C41.5833 12.5833 42.1667 11 42.5833 10.5833C42.5833 10.25 42.75 10 43.0833 9.75C42.8333 9.41667 43.1667 9.16667 43.4167 9L46.5 3.58333C46.9167 3.16667 46.9167 2.66666 47.4167 2.33333C47.4167 2.08333 47.5833 1.75 47.75 1.58333L48.0833 0.999997C48.25 0.83333 48.5833 0.749997 48.75 0.83333C48.9167 1.08333 47.8333 3.25 47.5 3.58333H47.5833C47.8333 3.83333 47.8333 4 47.6667 4.25C47.5 5.5 46.75 6.91666 46.4167 8.16666C46.5833 8.41666 46.4167 8.41666 46.1667 8.58333C46.1667 8.75 46.0833 8.91667 46.25 8.91667C46.1667 9.16667 45.75 9.66667 45.9167 9.83333L46.4167 9.33333C46.5833 9.16667 46.6667 9 46.5 8.83333C46.6667 8.66666 46.9167 8.33333 47 8.08333L47.6667 6.58333L48.1667 6.16666C48.3333 6 48.5 5.75 48.3333 5.58333L48.6667 4.91667C48.5 4.33333 49.3333 4.08333 49.1667 3.5L50.25 2.58333C50.6667 3.08333 50.6667 3.08333 50.25 3.41667C50.6667 3.91667 49.8333 4 50.1667 4.41667C49.9167 4.75 49.3333 6.25 49.5 6.5L48.8333 8.08333C49.1667 8.5 49.25 9 48.75 9.41667C48.5833 10.0833 48.25 10.9167 47.75 11.4167L48 12.0833L47.4167 12.5V13.4167C47.1667 13.75 47.25 14.0833 46.9167 14.25C46.8333 14.4167 46.9167 14.8333 47 14.9167C47.0833 15.0833 47.25 15 47.25 14.9167C46.8333 14.4167 47.6667 14.0833 47.9167 13.9167V12.6667H48C48.0833 12.5 48.1667 12.25 48 12.0833C48.5 11.6667 48.5833 11.0833 49.0833 10.75C48.5 10.1667 48.9167 10.1667 49.5 9.66667C49.9167 9.33333 49.9167 7.58333 50.4167 7.16666C50.5833 7.08333 50.75 7.16666 50.8333 7.25C51.25 7.66666 50.8333 8.5 50.5 8.75C50.0833 9.83333 49.9167 10.75 49.5 11.75C49.6667 11.9167 49.5 12 49.3333 12.1667C49.1667 12.3333 49.25 12.5 49.4167 12.5833C49.1667 12.8333 48.9167 13.1667 48.9167 13.4167L48.5833 14C48.8333 14.3333 48.75 14.6667 48.5 14.8333C49 14.8333 50.25 14.5833 50.6667 15.0833C50.9167 15.4167 50.9167 15.8333 50.6667 15.9167C50.6667 16 50.5 16.25 50.5833 16.3333L50.8333 16.1667L51.9167 15.3333L52.0833 14.75C51.9167 14.5 52.0833 14.5 52.25 14.3333C52.3333 14.1667 52.25 14.0833 52.1667 14C52.6667 13.5 53 12.8333 53.5 12.3333C53.6667 11.5833 54.1667 10.8333 54.8333 10.5L54.75 10.0833C54.6667 9.83333 54.8333 9.58333 55.0833 9.41667C55.25 9.08333 55.4167 9 55.5833 9.25C55.9167 9.58333 56.0833 9.83333 55.6667 10.25C55.4167 10.5 54.5833 11.5 54.9167 12C54.8333 12.4167 54.4167 13.9167 53.9167 14.4167C54.1667 14.6667 54 14.8333 53.8333 14.9167C53.5 15.1667 54.1667 16 54.25 16.1667C54 16.5 52.5833 19.25 52.9167 19.5833L52.25 20.1667C52 20.6667 51.75 21.0833 51.5833 21.5833L51.6667 21.8333C52.25 21.8333 52.25 20.4167 52.9167 20.4167C53.0833 20.4167 53.25 20.3333 53.5 20.25L52.9167 20L53.1667 19.8333C53.4167 19.6667 53.5833 19.8333 53.75 20C53.9167 19.75 54.0833 19.5833 54.0833 19.3333C54.25 19.1667 54.25 18.75 54.3333 18.4167C54.0833 18.4167 53.8333 18.25 53.6667 18ZM45.0833 44.5833L44.75 44.8333C44.6667 45.1667 44.4167 45.5 44.25 45.8333V46.4167C44.8333 46.25 45.4167 45.3333 45.4167 44.8333C45.5833 44.8333 45.75 44.8333 45.75 44.6667C45.75 44.4167 45.6667 44.1667 46 44.1667L47 41.5C47.25 41.5 47.4167 41.4167 47.4167 41.25C47.4167 40.9167 47.4167 40.8333 47.75 40.8333L48.1667 40C48.1667 39.75 48.25 39.0833 48.4167 38.4167C48.4167 38.5 48.3333 38.5833 48.25 38.6667L47.8333 38.9167L47.6667 38.75C47.5833 39 47.5 39.1667 47.5 39.25C47.1667 39.75 46.6667 40.1667 46.6667 40.8333L46.3333 41.5833C46.0833 41.75 46.0833 42.0833 46.0833 42.3333C46.0833 43.0833 45.0833 43.8333 45.0833 44.5833ZM38.25 58.25C38.3333 58.3333 38.5 58 38.5 58L39.0833 57C39.0833 56.6667 39.5833 55 39.8333 54.8333L40.25 55.0833C40.3333 54.75 40.4167 54.3333 40.6667 54.0833L40.25 54L39.9167 53.75L39.8333 54.3333C39.5833 54.5833 39.3333 55 39.1667 55.3333C39.1667 55.6667 39.0833 56 38.8333 56.25C38.6667 56.0833 38.3333 56.4167 38.5 56.5L38 57.0833L37.75 57.9167H37.5833V58.5L38 58.6667C37.9167 58.5833 38 58.5 38.0833 58.5833L38.25 58.25ZM16.3333 82.1667C16 82.8333 15.6667 83.5 15.4167 84.25C15.5 84.5833 15.75 84.8333 16.0833 84.8333C16.25 84.4167 16.5833 82.9167 16.9167 82.6667L16.3333 82.1667ZM27.8333 78.6667L27.1667 79.75C27.3333 80 27.4167 80.3333 27.4167 80.6667C27.3333 80.6667 27.1667 80.6667 27.1667 80.8333C27.1667 81 27.3333 81.1667 27.4167 81.3333L28 81.5833L28.0833 81.3333L27.6667 81C27.6667 80.75 27.75 80.5 28 80.4167C28 79.8333 28.0833 79.25 27.8333 78.6667ZM44.75 18.25L45.3333 18.1667H45.4167L45.3333 17.3333L46.0833 16.75L46.3333 16.0833L46 16L45.0833 16.8333C44.5 17.3333 45 18.0833 44.75 18.25ZM33.5833 69L34.0833 68.9167C34.25 68.5 34.5 68 34.5 67.5C34.6667 67.1667 34.8333 66.6667 35.0833 66.4167H34.5833C34.5833 67.0833 33.9167 67.4167 33.9167 68.0833L33.4167 68.75C33.3333 68.8333 33.5 69 33.5833 69ZM15.1667 85.0833L14.8333 86.0833C14.8333 86.0833 14.5 86.0833 14.5 86.1667C14.5 86.3333 15 86.5833 15.1667 86.6667L15.75 85.8333L15.1667 85.0833ZM19.6667 87.1667C19.6667 87.5833 19.4167 87.9167 19.4167 88.3333C19.9167 87.75 20.25 87.0833 20.5833 86.4167C20.5833 86.3333 20.5 85.8333 20.4167 85.8333C20.25 85.8333 20.25 86.1667 20.25 86.25C20.25 86.6667 20 87 19.6667 87.1667ZM21.1667 94.8333L21.5 95.4167L21.4167 96.0833C20.9167 96.0833 21.3333 96.6667 20.5833 96.6667C20.5833 96 21.1667 95.5 21.1667 94.8333ZM36.1667 65.8333L36.0833 65.3333L35.5833 65.8333C35.6667 65.5833 35.1667 65.5833 35.1667 65.8333L35.75 66.5833H36.0833L36.1667 65.8333ZM19.0833 88.75L19.3333 88.4167C18.8333 88.4167 18.5833 88.8333 18.5833 89.3333V89.4167C18.5833 89.4167 18.1667 89.4167 18.1667 89.5C18.1667 89.5833 18.8333 89.6667 18.9167 89.6667L19.4167 89.25C19.1667 89.25 19.0833 88.9167 19.0833 88.75ZM32 72.25C32.25 71.9167 32.6667 71.1667 32.6667 70.75H32.3333C32.1667 71.25 32 71.8333 31.6667 71.8333C31.6667 71.9167 31.8333 72.5 31.9167 72.5C32 72.5 32 72.3333 32 72.25ZM23.4167 88.4167C23.1667 88.4167 22.8333 88.5 22.6667 88.6667L22.8333 89.4167C22.9167 89 23.1667 88.4167 23.6667 88.4167C23.6667 88 23.9167 87.6667 23.9167 87.25C23.3333 87.25 23.4167 88 23.4167 88.4167ZM49.9167 36.5833C49.9167 36.4167 49.5833 36.5 49.4167 36.5C49.25 36.8333 49.1667 37.1667 48.9167 37.5C49.0833 37.5 49.25 37.5833 49.4167 37.75L49.6667 36.9167C49.75 36.8333 49.9167 36.6667 49.9167 36.5833ZM35.1667 64.1667C35.1667 64.5 35.25 64.9167 35.4167 65.1667L35.6667 63.6667L35.25 63.5833C35.25 63.6667 35.1667 63.6667 35.1667 63.75V64.1667ZM37.25 59C37.25 59.5 37.3333 60.3333 37.1667 60.8333C37.3333 60.6667 37.4167 60.4167 37.4167 60.0833L37.8333 59.25L37.25 59ZM50.9167 32.5833C51 32.5833 51 32.4167 51 32.4167L51.4167 31.6667L51 31.3333V31.9167C50.8333 31.9167 50.6667 32 50.6667 32.1667C50.6667 32.3333 50.75 32.5833 50.9167 32.5833ZM31.0833 74H30.5V74.3333L30.6667 74.5833L31.3333 74V73.6667L31.0833 73.5833V74ZM17.5 79.75V80H17.6667C18 80 18.0833 80 18.0833 79.6667L17.9167 79.25L17.5 79.75ZM41.25 52.9167C41.25 53 41.25 53.0833 41.1667 53.0833L41.0833 53.75L41.1667 54C41.3333 53.75 41.5 53.4167 41.5 53.1667C41.5 53 41.4167 52.9167 41.25 52.9167ZM35.8333 62.5L35.5 63.0833L35.9167 62.9167L36.1667 62.5V62.3333L35.8333 62.5ZM31.6667 72.75L31.4167 72.8333V73.5C31.6667 73.3333 31.6667 73 31.6667 72.75ZM51 30.9167V31.0833L51.4167 30.75V30.5C51.4167 30.5 51.4167 30.25 51.3333 30.25V30.5L51 30.9167ZM36.8333 64.5C36.9167 64.3333 37 64.0833 37 63.8333L36.5833 64.5H36.8333ZM13.3333 89V89.4167C13.3333 89.6667 13.5 89.6667 13.6667 89.6667L13.3333 89ZM49.4167 34.3333C49.4167 34.6667 49.3333 34.9167 49.25 35.1667C49.5 34.8333 49.5833 34.5 49.75 34.1667L49.4167 34.3333ZM14 88.1667C14 88.25 14.0833 88.5 14.1667 88.5C14.3333 88.5 14.3333 88.3333 14.3333 88.25C14.3333 88.1667 14.25 88.0833 14.1667 88.0833C14.0833 88.0833 14.0833 88.1667 14 88.1667ZM50.3333 33.3333C50.3333 33.5 50.3333 33.5833 50.4167 33.6667H50.5833C50.6667 33.6667 50.6667 33.5833 50.6667 33.5C50.6667 33.3333 50.5833 33.3333 50.4167 33.3333H50.3333ZM41.8333 49.75C41.75 49.75 41.4167 49.8333 41.4167 50C41.4167 50.0833 41.5833 50.0833 41.6667 50.0833L41.8333 49.75ZM46.0833 40.8333L45.75 40.3333V40.4167C45.75 40.6667 45.8333 40.8333 46.0833 40.8333ZM22 90C22 90.0833 22.0833 90.3333 22.1667 90.3333C22.3333 90.3333 22.3333 90.1667 22.3333 90.0833L22 90ZM16.5833 92.75C16.5833 92.8333 16.5833 93 16.75 93H16.9167C16.9167 92.8333 16.75 92.75 16.5833 92.75ZM7.16667 97C7.16667 97.0833 7.25 97.25 7.33333 97.25C7.41667 97.25 7.5 97.1667 7.5 97.0833L7.16667 97ZM30.5 75.0833C30.5 75 30.5833 74.9167 30.5833 74.8333C30.4167 74.8333 30.3333 74.9167 30.25 75.0833H30.5ZM7.5 96.3333C7.5 96.4167 7.5 96.5833 7.66667 96.5833H7.75C7.75 96.4167 7.66667 96.3333 7.5 96.3333ZM14.8333 95.1667C14.8333 95.25 14.8333 95.4167 14.9167 95.4167L15.1667 95.3333L14.8333 95.1667ZM35.1667 68.0833H35.0833C35 68.25 35 68.3333 35 68.5C35.0833 68.4167 35.1667 68.25 35.1667 68.0833ZM48.4167 38.4167C48.5 38.25 48.5833 38.0833 48.5833 38L48.3333 38.25C48.4167 38.3333 48.5 38.3333 48.4167 38.4167ZM40.5 52.6667V53C40.5833 52.9167 40.6667 52.75 40.6667 52.6667H40.5ZM45.4167 42.6667L45.3333 42.5833V42.9167L45.4167 42.6667ZM29.5833 75.75C29.5833 75.8333 29.5833 75.9167 29.6667 76V75.75H29.5833ZM18.8333 77.9167L18.6667 78.25C18.75 78.1667 18.8333 78.0833 18.8333 78V77.9167ZM48.5833 36.9167C48.5833 37 48.5 37 48.5 37L48.75 36.9167H48.5833ZM32.1523 100.083L32.4023 99.9167L32.319 99.5833L32.7357 99L32.6523 98.9167C32.4023 98.9167 31.569 100.417 31.319 100.75C31.4023 100.5 31.6523 100.333 31.569 100C31.6523 99.1667 32.2357 98.1667 32.6523 97.5C32.6523 97 32.819 95.9167 33.4023 95.8333C33.4023 95.25 33.4857 93.25 33.819 93C33.7357 92.75 33.7357 92 34.1523 92C34.2357 91.5 34.569 90.5 34.9857 90.0833C34.9857 89.8333 34.819 88.9167 35.2357 88.9167L35.4023 88.0833C35.569 88.0833 35.9023 88.0833 35.9023 87.8333C35.9023 86.5833 36.6523 85.3333 36.6523 84.1667L36.569 82.9167L36.7357 82.8333C37.069 82.8333 37.1523 83 37.1523 82.5L37.4857 81.9167C37.4857 81.5833 37.819 81.5833 37.819 81.25L38.1523 80.5833C38.069 80.3333 38.319 80.25 38.319 80V79.8333C38.7357 79.8333 38.9857 79.5 38.9857 79.0833C39.6523 77.5 40.569 75.9167 41.4023 74.4167C41.4023 73.9167 41.6523 72.75 42.2357 72.6667C42.2357 72.5 42.2357 72.1667 42.4857 72.0833C42.7357 71.5833 42.9023 71 42.9023 70.4167C43.069 70.4167 43.4857 70.5 43.4857 70.25C43.4857 69.4167 42.9023 68.6667 43.6523 67.9167L44.4023 66.1667C45.069 66.1667 44.569 64.5833 45.069 64.5833L46.9857 60.4167C47.1523 60.4167 47.2357 60.3333 47.2357 60.1667C47.2357 59.9167 47.319 59.75 47.569 59.75C47.569 59.5 47.7357 59.4167 47.9857 59.4167H48.2357C48.2357 59.0833 48.2357 58.75 48.4023 58.5C48.319 57.75 49.069 57.4167 49.069 56.75L49.9023 55.3333C49.819 54.6667 50.4857 54.25 50.4857 53.5833C51.1523 53.5833 50.6523 52.25 51.569 52.25L51.7357 51.4167C51.9023 51.4167 52.319 51.3333 52.319 51.0833C52.319 50.8333 52.2357 50.5 52.569 50.5C52.7357 50.5 52.9023 50.5833 52.9023 50.4167C52.9023 49.9167 53.2357 49.9167 53.2357 49.4167C53.6523 48.75 54.2357 48.0833 54.4023 47.3333C54.569 47.3333 54.7357 47.25 54.7357 47.0833C54.7357 46.8333 54.6523 46.6667 54.9857 46.6667V45.8333C56.9857 43.5 57.9023 40.6667 59.7357 38.4167C59.7357 37.9167 60.069 37.1667 60.6523 37.0833L60.4857 35.9167C61.2357 35.6667 61.1523 36 61.1523 35.1667C61.319 35.1667 61.4857 35.0833 61.4857 34.9167C61.4857 34.75 61.4857 34.5833 61.7357 34.5833L61.9857 33.9167L62.4023 33.6667C62.569 33.25 62.6523 32.75 62.6523 32.3333L63.4857 30.9167C63.7357 30.75 63.9857 30.5 64.1523 30.25C64.1523 29.9167 64.4857 29.9167 64.4857 29.5833C64.4857 28.9167 65.4023 28.8333 65.4023 28.25L65.6523 27.6667C65.6523 26.8333 66.319 25.9167 66.819 25.25C66.819 24.75 67.7357 24.5 68.1523 24.4167V23.6667C68.319 23.6667 68.6523 23.75 68.6523 23.4167V22.3333L68.9857 22.0833L69.6523 22.4167C69.6523 22.6667 69.569 23 69.319 23.0833L69.7357 23.75C69.9023 23.5833 69.9857 23.3333 69.9857 23.0833V22.9167C70.2357 22.9167 70.6523 23 70.819 23.1667C71.069 23.1667 71.319 23.1667 71.319 22.8333V22.5833C71.4857 22.75 71.9857 23.1667 71.9857 22.6667V22.5L73.319 21.5833L73.2357 20.75C73.4857 20.5833 73.6523 20.3333 73.819 20.0833C73.819 19.8333 73.9857 19.75 74.2357 19.75C74.569 19.75 74.9857 19.9167 75.319 20.0833C75.9023 19.75 75.4857 19.0833 76.4023 19.0833L76.9023 17.5L77.4023 18.1667C77.319 18.25 76.9023 18.9167 77.2357 18.9167H77.319C77.319 19.1667 77.2357 20.25 77.6523 20.25C78.4857 20.25 77.9857 20.8333 78.319 20.8333C78.4857 20.8333 78.6523 20.6667 78.7357 20.5L79.4023 20.25C79.7357 19.9167 80.319 19.3333 80.819 19.3333C80.9857 19.3333 81.069 19.5833 81.069 19.75C81.4857 19.75 81.7357 19.6667 81.7357 20.1667C81.9857 20.25 82.069 20.5833 82.069 20.75L83.9023 21.4167C83.9023 21.75 84.2357 21.8333 84.4857 21.8333H84.569C84.569 22.0833 84.569 22.5 84.819 22.75C85.6523 22.75 85.7357 23.1667 86.1523 23.8333L86.9023 24.4167C87.569 24.5833 87.4023 27 87.4023 27.4167C87.4023 27.5833 87.4023 27.8333 87.1523 27.8333L86.819 27.75L86.9023 29.0833C86.569 29.0833 86.569 29.5833 86.569 29.75V30.1667C86.9023 30.0833 87.569 29.75 87.569 30.3333C87.569 30.75 87.569 31.25 87.9857 31.5V32.5833L87.6523 33.1667C87.6523 35.9167 87.4857 38.9167 87.4857 41.5C87.4857 41.8333 87.7357 41.8333 87.9857 41.8333C88.2357 43.0833 88.4023 44.4167 88.4023 45.75C87.4023 46.25 88.7357 50.6667 88.7357 51.75C88.7357 52.0833 88.6523 53.5 89.1523 53.5C89.4023 53.5 89.7357 53.25 89.9023 53.1667L89.7357 52.5L90.069 52.1667C90.069 51.5833 90.4857 51 90.819 50.5833C90.9023 50 90.819 49.3333 91.569 49.25V47.9167L91.9023 47.6667L92.1523 47.1667C92.4023 47.0833 92.4857 46.8333 92.4857 46.5833L92.9857 45.6667C92.9023 44.9167 93.569 44.8333 93.569 44.0833V44L94.9023 42.8333C94.819 42.25 95.069 42 95.069 41.5V41.25C95.319 41.0833 95.4023 40.75 95.4023 40.5L96.1523 40.0833L96.819 38.4167C96.7357 38.0833 96.9023 37.8333 97.2357 37.75C97.2357 37.1667 97.2357 37.0833 97.819 37.0833C97.9023 36.6667 98.1523 35.5 98.7357 35.5C98.6523 34.8333 99.2357 34.3333 99.2357 33.6667V33.5833C99.819 33.0833 100.236 32.1667 100.902 31.8333C101.069 31.8333 101.236 31.75 101.236 31.5833C101.236 31.4167 101.152 31.1667 101.069 31C101.569 30.75 101.152 29.8333 101.902 29.8333H101.986C101.986 29.3333 102.402 28.25 102.986 28.1667C102.902 27.4167 103.569 27.1667 103.569 26.5C103.819 26.3333 103.902 25.9167 103.902 25.5833C104.152 25.1667 104.569 24.75 104.986 24.5L105.402 23.5833C105.569 23.5833 105.652 23.5 105.652 23.3333C105.652 23.0833 105.736 22.9167 105.986 22.9167L106.569 22.25C106.569 21.6667 106.819 21.1667 107.152 20.6667L107.486 20.4167C107.736 19.5 108.486 18.6667 108.736 17.6667C108.902 17.6667 109.319 17.75 109.319 17.5L109.236 17C109.569 17 109.986 16.75 109.986 16.3333C110.152 16 111.986 13.6667 112.069 13.6667C112.069 13.3333 112.402 13.4167 112.402 13.0833C112.819 12.25 113.569 11.5 114.236 10.9167C114.236 10.3333 114.736 10 115.152 9.58333C115.236 9.41667 115.402 9.08333 115.569 9.08333C115.652 9.08333 115.736 9.16667 115.736 9.25L116.319 8.83333C116.152 8.66666 115.902 8.5 115.902 8.25C115.902 8.08333 116.236 8 116.319 8V7.66666L116.736 8C116.819 8 116.986 8 116.986 7.83333C116.986 7.75 116.736 7.66666 116.652 7.58333C116.986 7.41666 117.319 7.08333 117.319 6.66666C117.986 6 118.319 5.16667 119.152 4.58333L119.569 3.75C120.236 3.75 120.236 2.33333 120.902 2.33333C120.902 3.33333 119.652 4.33333 119.236 5.25C119.236 5.66666 118.902 5.66666 118.902 6C118.069 6.5 117.652 8 117.152 8.91667L117.652 8.25L118.319 8.91667C117.736 9.58333 117.236 10.4167 116.819 11.1667C116.736 12.75 115.736 13.75 115.402 15.1667L116.652 14.0833L116.986 14.75L116.736 15.5L116.069 16.0833C116.152 16.5833 115.819 16.6667 115.819 17.1667C115.819 17.5833 115.152 19.25 114.902 19.25H114.652L114.486 20.25C114.236 20.5 114.152 20.8333 114.152 21.1667L113.486 21.8333C113.569 22.1667 113.402 22.5 113.069 22.5833C113.152 23.1667 113.569 23.4167 113.986 23.75C113.986 23.8333 114.152 24.5 114.319 24.5V24.25C114.319 23.4167 115.236 23.5833 115.236 23.1667V23.0833C115.402 22.5833 115.486 22 115.402 21.5C115.736 21.4167 116.152 21.25 116.486 21.25C116.652 21.25 116.902 21.25 116.902 21.4167C116.902 21.6667 116.569 21.8333 116.402 22V22.5L115.819 23.0833L116.319 23.75C116.402 23.75 116.652 23.75 116.652 23.9167C116.652 24.0833 115.569 26 115.569 26C115.319 26 115.069 26 115.069 26.3333V26.5833L114.486 27.0833C114.319 27.8333 113.819 29.0833 113.319 29.6667C113.152 29.75 112.986 29.9167 112.986 30.0833C112.986 30.25 113.486 30.25 113.569 30.25C114.069 30.25 113.819 30.4167 114.236 30.4167H114.319C114.736 30.0833 114.986 29.5833 115.319 29.1667C115.569 29.1667 115.569 28.8333 115.569 28.6667L115.486 27.9167C116.069 26.75 116.819 25.8333 117.569 24.8333C117.569 24.5 117.902 24.5 117.902 24.1667C117.902 23.75 117.819 23.5833 118.319 23.5833C118.986 23.5833 118.736 22.25 119.236 22.1667C119.486 21.5833 119.902 20.9167 120.402 20.5833H120.569C120.652 20.5833 121.069 20.5833 121.069 20.75C121.069 21.0833 120.319 21.5 120.069 21.6667C119.652 22.75 119.152 23.9167 118.236 24.6667C117.986 24.75 117.902 25.0833 117.902 25.3333L116.986 26.8333C116.986 27.0833 117.236 27.9167 116.819 27.9167H116.736L117.819 28.3333C118.152 27.9167 118.569 27.5833 119.069 27.3333C118.986 26.75 119.819 25.5 120.402 25.5C120.569 25.5 120.652 25.5833 120.652 25.75C120.319 25.75 120.319 26.0833 120.402 26.3333C120.486 26.3333 120.736 26.3333 120.736 26.5C120.736 26.75 120.569 26.9167 120.402 27.0833L119.819 28.9167C119.236 29 119.319 30.25 118.736 30.25C118.736 30.5833 118.569 32.1667 118.152 32.1667C117.569 33.1667 116.986 34.0833 116.569 35.1667C116.819 35.1667 117.236 35.1667 117.236 35.4167C117.236 35.75 116.902 36.0833 116.986 36.4167L116.152 37.75C115.736 37.75 115.486 39 115.486 39.4167V39.6667C114.902 39.6667 114.486 40.4167 114.486 40.9167C113.986 41 113.986 41.9167 113.986 42.3333C113.819 42.3333 113.736 42.4167 113.736 42.5833C113.736 42.8333 113.736 43 113.402 43C113.402 43.1667 113.236 43.25 113.069 43.25L112.652 43.1667C112.652 42.75 112.902 41.4167 113.486 41.4167L113.902 40.6667C113.902 40.4167 113.986 40.0833 114.152 39.9167C114.152 39.0833 115.069 38.75 115.069 37.9167L115.402 37.6667L114.986 37.5833C114.736 37.75 114.402 38.0833 114.402 38.4167C114.402 39.25 113.569 39.5833 113.569 40.4167C112.652 41.1667 112.236 43 111.236 44C111.069 44.0833 110.986 44.1667 110.986 44.3333C110.986 44.5833 111.069 44.75 111.236 45C111.152 45.0833 111.069 45.1667 110.902 45.1667C110.736 45.1667 110.652 45.0833 110.652 45.3333V45.5C110.486 45.6667 110.236 45.9167 110.236 46.1667C110.236 46.3333 110.569 46.3333 110.652 46.3333C110.652 46.1667 110.819 45.4167 111.069 45.4167C111.236 45.4167 111.236 45.5833 111.236 45.6667C111.486 45.8333 111.652 46 111.652 46.3333C111.652 46.5 111.402 46.6667 111.236 46.75C111.319 47 111.152 47.25 110.902 47.3333C110.819 47.5833 110.402 47.6667 110.152 47.6667C109.986 47.6667 109.902 47.5833 109.902 47.4167C109.902 47.1667 110.069 46.8333 110.236 46.6667C109.819 46.6667 109.486 46.8333 109.486 47.25V47.3333C108.902 47.8333 108.486 48.6667 108.152 49.3333C108.236 50 107.486 50.3333 107.486 51C107.152 51 107.152 51.4167 107.152 51.5833C107.152 51.8333 107.069 52.25 107.402 52.25C107.736 52.25 107.986 52.25 107.986 52.6667C107.736 52.8333 107.652 53.1667 107.652 53.4167L106.986 54.0833L106.402 55.8333C106.319 55.8333 106.152 55.8333 106.152 56C106.152 56.25 106.319 56.5 105.902 56.5C105.902 56.6667 105.902 56.9167 105.652 56.9167C105.486 56.9167 105.236 56.75 105.069 56.5833C104.986 56.5833 104.819 56.5833 104.819 56.75C104.819 57.0833 105.652 57.3333 105.652 58.1667C105.652 58.4167 105.569 58.4167 105.402 58.4167H104.986V59.4167C104.736 59.6667 104.319 60.0833 103.902 60.0833C103.736 60.0833 103.736 59.9167 103.736 59.8333L103.486 59.75L103.152 60.5C103.236 60.75 103.152 61.0833 102.902 61.3333C102.902 62.1667 102.319 61.4167 102.152 62.0833L101.902 63.0833L103.152 63L103.069 63.6667C102.236 64.25 101.569 65.6667 101.152 66.5833C101.652 66.5833 101.569 66.8333 101.236 67C101.236 67.75 100.569 68.1667 100.569 68.9167C99.819 69 99.6523 70 99.6523 70.5833C99.4023 70.5833 99.1523 70.6667 99.1523 70.9167L99.2357 71.1667C98.9023 71.6667 98.6523 72.25 98.6523 72.8333L98.2357 73.25L97.9857 74.0833C97.7357 74.0833 97.319 74.25 97.319 74.5C97.319 75.3333 96.4023 76.0833 95.9023 76.75L95.819 77.9167C95.6523 77.8333 95.2357 77.8333 95.2357 78.0833V78.25C95.1523 79 94.6523 80.0833 94.319 80.75C94.069 80.5833 93.9857 81 93.9857 81.1667L94.319 81.25C94.4023 81.4167 94.4857 81.5833 94.4857 81.75C94.4857 82.1667 93.7357 81.8333 93.7357 82.3333C93.7357 82.5 93.819 82.6667 93.569 82.6667L93.2357 83.25C93.2357 83.6667 92.9023 83.6667 92.9023 84L92.569 84.6667C92.569 85 92.069 85.6667 92.069 86C92.069 86.6667 92.4023 87.25 91.569 87.25L91.069 88L90.4023 88.25V86.25C90.569 86.0833 90.9023 85.75 90.4023 85.75H90.2357L88.7357 85.9167C88.4857 86.1667 88.1523 86.5 87.7357 86.5L87.1523 86.8333L88.1523 87.1667C88.1523 86.75 88.6523 86.75 88.9023 86.8333L89.4857 86.0833H89.6523C89.819 86.0833 90.069 86.0833 90.069 86.3333C90.069 86.6667 89.7357 87 89.7357 87.3333C88.9857 87.75 88.069 88.25 87.2357 88.25C86.9857 88.25 86.4857 88.25 86.4857 87.9167C86.4023 87.9167 86.1523 87.9167 86.1523 87.75C86.1523 87.6667 86.4023 87.5833 86.4857 87.5C86.4857 87.3333 86.4023 87.25 86.319 87.25C86.069 87.25 85.9023 87.5 85.7357 87.5833L85.069 87.3333H84.4857L84.319 87.9167L83.1523 88.0833L83.2357 87.0833C83.9023 87 82.9857 86.75 82.819 86.6667L82.319 86.1667L81.569 85.8333C81.4023 85.3333 81.069 85.25 81.069 84.6667L80.319 84.3333L79.7357 84.6667C78.4857 84.8333 79.4023 85.75 78.7357 85.75C78.569 85.75 78.4857 85.6667 78.4023 85.5L77.9857 85.3333V84.6667C77.4857 84.25 77.569 82.5 77.4857 82H77.2357C77.2357 81 76.9023 81 76.819 80.3333C77.1523 80.0833 77.2357 79.75 76.6523 79.75L76.1523 77.75C76.2357 77.25 76.6523 76.25 75.819 76.25C75.319 76.25 75.1523 75.5833 75.1523 75.1667C75.1523 75 75.1523 74.6667 75.4023 74.5833C75.4857 74.5833 75.7357 74.5833 75.7357 74.4167C75.7357 73.9167 74.9023 73.8333 74.819 72.9167L74.569 68.6667C74.569 68.5 74.6523 68.25 74.819 68.25H74.9023C74.4857 68.0833 73.6523 60.5 73.6523 59.1667C73.6523 58.9167 73.6523 57.9167 74.069 57.9167C75.1523 59.3333 74.9023 61.75 74.9857 63.5C74.9857 62.3333 74.9857 56.75 74.819 56.0833C74.2357 56.25 74.4857 55.0833 74.4857 54.8333L74.1523 47.3333L71.4857 51.5V52.3333C71.1523 52.6667 70.9023 53.1667 70.7357 53.5833C70.7357 54.1667 70.4023 54 69.9857 54.0833C69.4857 55.6667 68.7357 56.4167 68.069 57.75C68.1523 58.1667 67.7357 58.4167 67.4023 58.4167L66.9857 59.1667C66.6523 59.3333 66.6523 59.8333 66.6523 60.0833C66.6523 60.3333 66.7357 60.6667 66.319 60.6667C65.9023 61.25 63.319 66 63.319 66.5V66.6667C62.9857 66.5833 62.6523 66.8333 62.6523 67.1667V67.3333C62.1523 67.3333 61.7357 68.5 61.7357 68.9167C61.7357 69.6667 61.1523 69.6667 61.1523 70.1667L59.319 74C59.319 74.5833 58.7357 74.8333 58.7357 75.4167V75.5L58.1523 76.9167C57.9857 76.9167 57.9023 76.9167 57.9023 77.0833C57.9023 77.3333 57.9023 77.5 57.569 77.5L56.9857 77.75L56.7357 78.9167C56.4857 78.9167 56.319 78.9167 56.319 79.1667C56.319 79.75 56.319 80.25 56.2357 80.8333L55.4857 81C55.2357 81.1667 55.1523 81.5833 55.1523 81.9167L54.4857 82.3333C54.569 82.9167 54.319 83.4167 54.319 84L53.319 85.4167L52.7357 85.6667V85.0833L52.9857 84.75C52.9857 83.8333 53.819 83.3333 53.819 82.4167V82.25L54.2357 81.5833C54.4023 81.5833 54.4857 81.5 54.4857 81.3333C54.4857 81.0833 54.4857 80.9167 54.819 80.9167L55.069 80.1667L54.4857 79.6667L54.6523 78.6667C54.569 78.6667 54.4023 78.6667 54.4023 78.5C54.4023 78.0833 54.9023 77.75 54.9023 77.3333V77.25L54.2357 76.75C54.2357 77.1667 53.9023 77.3333 53.9023 77.75V77.8333C53.6523 78.0833 53.6523 78.5 53.6523 78.75C53.4023 79 53.4023 79.4167 53.4023 79.75C53.2357 79.75 53.069 79.75 53.069 79.9167C53.069 80.1667 53.1523 80.3333 52.9023 80.3333C52.819 80.5 51.569 83.75 50.819 83.75C50.6523 83.75 50.6523 83.4167 50.6523 83.25C51.069 83 50.569 82.0833 51.1523 81.8333L51.569 81.0833C51.819 81.25 51.9023 80.9167 51.9023 80.75L51.4857 80.3333C51.4857 80.0833 51.6523 79.5833 51.2357 79.5833H51.1523C51.069 80.1667 50.819 80.75 50.569 81.1667C50.1523 81.1667 49.4023 82.6667 49.4023 83.25C49.319 83.25 49.069 83.25 49.069 83.4167C49.069 83.6667 49.319 83.8333 48.9023 83.8333C48.9023 84.5 48.4023 84.8333 47.9023 85.1667C47.9023 85.8333 47.319 85.9167 47.319 86.4167V86.5833L46.7357 87.1667C46.7357 87.75 46.1523 88.0833 46.1523 88.6667L45.1523 90C45.1523 90.3333 44.9857 90.5 44.6523 90.5H44.4857C44.4857 90.8333 44.4023 91.1667 44.4023 91.5V91.8333C43.4857 91.8333 43.4857 94.0833 42.7357 94.0833C42.4857 94.0833 42.4023 93.75 42.4023 93.5833C42.9023 92.5833 43.319 91.5833 43.9023 90.5833C43.9023 90.0833 44.4857 89.5 44.4023 88.8333C44.4857 88.8333 44.6523 88.75 44.6523 88.6667C44.6523 88.25 44.4023 88 45.069 87.9167L45.1523 86.9167C45.319 86.9167 45.319 86.8333 45.319 86.6667C45.319 86.5833 45.2357 86.25 45.069 86.25C44.9857 86.25 44.9857 86.4167 44.9857 86.4167V86.5833C44.9023 86.75 44.4857 87.5833 44.2357 87.5833C44.1523 87.5833 44.1523 87.1667 44.1523 87.1667C44.1523 87 44.1523 86.8333 44.319 86.75C44.2357 86.3333 44.6523 86.1667 44.569 85.6667C44.6523 85.6667 44.819 85.5833 44.819 85.5C44.819 85.25 44.6523 85 44.4857 84.75C44.2357 84.75 44.2357 85.25 44.2357 85.4167C43.569 85.4167 44.069 86.6667 43.2357 86.6667C43.069 86.6667 42.9023 86.5833 42.7357 86.5C42.4857 86.6667 42.4023 87 42.4023 87.25L41.819 87.75C41.819 87.9167 41.819 88.1667 41.569 88.1667C41.4023 88.1667 41.2357 88 41.069 87.8333C40.9857 88.25 40.7357 89.4167 40.2357 89.4167C40.069 89.8333 38.7357 92.75 38.2357 92.75C38.1523 92.75 38.1523 92.5 38.1523 92.5C38.7357 91.8333 39.069 90.5833 39.1523 89.75C38.7357 89.9167 38.4857 91 38.4023 91.4167L37.7357 92.25C37.7357 92.5833 37.4023 93.9167 37.1523 94C37.1523 94.1667 37.069 94.4167 36.819 94.4167C36.6523 94.4167 36.4857 94.25 36.4857 94.0833L36.069 93.4167C35.9023 93.6667 34.069 96.9167 34.069 97.25V97.4167C33.819 97.4167 33.6523 97.5833 33.6523 97.8333V98L32.9023 98.5C32.819 99 32.7357 99.5 32.4023 99.9167L32.4857 100C32.4857 100.083 32.4023 100.25 32.319 100.25C32.2357 100.25 32.1523 100.167 32.1523 100.083ZM45.569 85.6667L45.9023 85C46.2357 84.9167 46.2357 84.6667 46.569 84.5833C46.569 84.25 46.6523 83.8333 46.9023 83.6667L46.4023 83C46.569 83 46.7357 82.9167 46.7357 82.75C46.7357 82.5 46.819 82.4167 47.069 82.4167C47.069 81.6667 47.7357 81.5833 47.7357 80.9167C47.7357 80.25 48.2357 80 48.2357 79.5V79.4167C48.2357 79.4167 48.6523 79.4167 48.6523 79.3333C48.6523 79.25 48.319 79.0833 48.2357 79.0833C48.2357 79 48.2357 78.75 48.069 78.75C47.9023 78.75 47.6523 79 47.569 79.0833L47.2357 79.8333C47.319 80.25 46.6523 79.9167 46.6523 80.5V80.5833L45.819 81.8333C45.9023 81.8333 46.4023 81.75 46.4023 81.9167C46.4023 82.0833 46.1523 82.3333 46.1523 82.5833C45.7357 82.6667 44.7357 82.8333 44.7357 83.4167C44.6523 83.4167 44.4857 83.5833 44.4857 83.6667L44.569 83.9167C44.819 83.9167 44.9023 84.25 44.9023 84.4167L45.4023 84.6667L45.569 85.6667ZM58.7357 68.6667C58.7357 68.8333 58.4857 68.9167 58.319 68.9167C57.7357 69.5833 57.4857 71 56.9023 71.8333C56.2357 71.9167 56.319 72.9167 56.319 73.4167C56.069 73.6667 55.569 74.1667 55.569 74.5C55.569 74.6667 55.7357 74.75 55.9857 74.75H56.069L56.319 74.25C56.569 74.25 57.069 74.25 57.069 73.8333L57.7357 73.75V73.0833C58.069 73.0833 58.1523 72.8333 58.1523 72.5833V72.4167L58.4857 71.6667L58.319 70.8333C58.4023 70.8333 58.4857 70.75 58.4857 70.6667C58.4857 70.4167 58.4857 70.1667 58.819 70.1667C58.9023 69.75 59.069 69.25 59.319 68.8333L59.069 68.6667H58.7357ZM93.2357 77.9167C93.1523 77.9167 92.9023 77.9167 92.9023 78C92.9023 78.1667 92.9857 78.25 93.1523 78.25C93.2357 78.25 93.2357 78.0833 93.2357 78L94.2357 78.1667L94.319 76.0833L94.9023 75.25C95.2357 75.25 95.4857 75.0833 95.4857 74.75V74.5833C95.7357 74.25 96.1523 73.3333 96.4857 73.0833V72.6667C97.2357 72.6667 96.569 72 97.2357 72C97.1523 72.1667 97.069 72.9167 97.4023 72.9167H97.4857C97.569 72.5833 97.4023 71.9167 97.819 71.75V70.9167C97.4023 71 97.1523 71.3333 96.7357 71.3333L95.9023 72.5C95.9023 73 95.569 73.4167 95.569 73.9167C94.9023 73.9167 94.069 76.25 93.9023 76.5833C93.4023 76.6667 93.2357 77.1667 93.2357 77.6667V77.9167ZM70.4023 48L69.319 49.3333C69.4857 50.0833 68.819 50.1667 68.819 50.75V50.8333C68.4857 51.1667 67.9023 51.75 67.9023 52.25L67.4857 52.9167C67.569 53.1667 67.7357 53.3333 67.9857 53.3333L68.319 53.25C68.2357 52.5 68.819 52.3333 68.819 51.6667L69.4857 51.0833C69.4857 50.75 69.819 50.5833 69.819 50.25C70.319 50.25 70.4857 49.3333 70.4857 48.9167L70.9857 48.25L70.4023 48ZM91.9857 79.25C91.9857 78.75 92.319 78.4167 92.2357 77.9167C91.9857 77.9167 91.569 77.9167 91.569 78.25V78.5C91.319 78.4167 90.7357 81.0833 90.7357 81.5833C90.7357 81.6667 90.7357 81.9167 90.9023 81.9167C90.9857 81.9167 91.319 81.3333 91.4023 81.6667V81.8333C91.4857 81.8333 91.819 81.8333 91.819 81.75C91.819 81.5833 91.7357 81.4167 91.6523 81.3333C91.6523 81.0833 91.7357 80.9167 91.9857 80.9167H92.069C92.1523 80.75 92.569 79.3333 92.569 79.25H91.9857ZM65.7357 55.5833C65.9023 55.6667 65.7357 56 65.569 56C65.569 56.75 63.819 58.75 63.2357 59.3333V60.1667L65.6523 57.75C65.569 57.0833 66.1523 57 66.1523 56.4167C66.319 56.3333 66.4857 56.1667 66.4857 55.9167C66.4857 55.8333 66.319 55.8333 66.2357 55.8333C66.1523 55.6667 66.069 55.5 65.9023 55.5C65.819 55.5 65.7357 55.5 65.7357 55.5833ZM98.9023 67.75V67.5C98.9023 67.0833 99.2357 67 99.1523 66.5L98.319 67.5833V68.25L97.319 69.0833C97.4023 69.6667 97.9857 69.0833 98.069 69.8333L98.6523 70C98.569 69.75 98.6523 69.3333 98.9857 69.3333C98.569 68.0833 99.6523 68.4167 99.6523 68.1667C99.6523 67.8333 99.1523 67.75 98.9023 67.75ZM100.902 62.1667C100.902 61.3333 99.9857 62.6667 99.9857 63.5V63.75C99.819 63.8333 99.4023 64.1667 99.4023 64.3333C99.4023 64.5 99.569 64.5 99.6523 64.5C100.069 64.5 100.652 64.3333 100.652 63.8333V63.5833C100.902 63.0833 101.152 62.5833 101.486 62.1667C101.736 62.1667 101.819 62 101.819 61.75V61.5C101.986 61.5 102.236 61.4167 102.236 61.25C102.236 61.0833 102.069 60.8333 101.902 60.8333C101.819 60.8333 101.819 61 101.819 61.0833V61.1667C101.319 61.1667 101.569 62.1667 100.902 62.1667ZM44.2357 78.4167C44.069 78.4167 43.9023 78.4167 43.9023 78.6667C43.9023 78.8333 43.9857 79 43.7357 79C43.6523 79.1667 43.6523 79.6667 43.4023 79.6667H43.2357L42.7357 80.6667C42.819 81.0833 42.4023 81.5833 42.1523 81.9167C42.1523 82.1667 42.1523 82.4167 41.9023 82.5833L42.4857 82.25C42.569 82.4167 42.7357 82.6667 42.9857 82.6667C43.069 82.6667 43.069 82.5 43.069 82.4167C42.819 82.3333 42.819 82 42.819 81.8333C43.069 81.75 43.069 81.4167 43.069 81.25L43.4023 80.5C43.569 80.5 43.6523 80.25 43.6523 80.0833C43.6523 79.5 43.9023 79.8333 43.9023 79.4167L44.569 78.3333C44.569 78.25 44.4857 78 44.4023 78C44.1523 78 44.2357 78.3333 44.2357 78.4167ZM104.402 54.5833C104.236 56 103.069 57.0833 103.069 58.5833C103.069 58.6667 103.069 58.8333 103.236 58.8333L103.569 57.8333C103.902 57.5833 104.069 57.1667 104.236 56.75V56.25C104.236 56.0833 104.236 55.75 104.486 55.75C104.569 55.4167 104.652 55.0833 104.652 54.75C104.652 54.75 104.652 54.5 104.569 54.5L104.402 54.5833ZM76.9857 75.9167C76.9857 76.9167 77.2357 77.8333 77.4023 78.75C77.7357 78.75 77.7357 78.3333 77.7357 78.1667C77.7357 77.5 77.569 76.9167 77.569 76.25L76.9857 75.9167ZM107.069 55.5C107.236 55 107.902 53 108.569 53L108.736 53.0833C108.736 53.6667 108.069 53.75 108.069 54.4167C107.402 54.5 107.652 55.4167 107.069 55.5ZM85.9023 84.75C85.569 84.75 85.319 84.8333 85.069 85.0833C84.9857 84.9167 84.6523 84.4167 84.6523 85C84.6523 85.25 84.819 85.5 85.069 85.5833C85.4023 85.5833 86.069 84.9167 86.2357 84.75C86.4857 84.6667 86.819 84.5 86.819 84.25H86.9857L86.819 84.1667L86.4023 84.0833L85.9023 84.75ZM106.402 53.9167L105.486 55.0833C105.486 55.1667 105.486 55.5 105.652 55.5C105.819 55.5 106.069 54.6667 106.152 54.5C106.486 54.0833 106.986 53.5833 106.986 53C106.986 52.9167 106.902 52.6667 106.819 52.6667C106.569 52.6667 106.402 53.75 106.402 53.9167ZM41.4857 83.0833L41.2357 84C41.069 84.1667 40.6523 84.5 40.6523 84.75C40.6523 84.9167 40.9023 84.9167 40.9857 84.9167L41.319 84.5833C41.319 84.3333 41.4023 84.0833 41.6523 84L41.7357 83.1667C41.7357 83.0833 41.7357 82.9167 41.6523 82.9167C41.569 82.9167 41.4857 83 41.4857 83.0833ZM112.652 30.6667C112.736 31.0833 112.069 30.8333 112.069 31.4167C112.069 31.5 112.319 32.1667 112.402 32.1667V32C112.402 31.6667 112.652 31.4167 112.986 31.4167H113.069L112.986 30.8333L112.652 30.6667ZM114.819 15.8333C114.902 16.25 114.319 16.5 114.319 16.8333C114.319 17 114.652 17 114.736 17C114.652 16.6667 114.736 16.3333 115.152 16.3333L115.402 16.0833V15.1667L114.819 15.8333ZM110.402 48.9167L109.986 48.5833C109.986 48.8333 110.152 49.0833 110.402 49.1667L109.902 49.25V48.3333C110.236 48.3333 110.569 48.1667 110.819 48H110.902C110.986 48 110.986 48 110.986 48.0833C110.986 48.25 110.569 48.75 110.402 48.9167ZM117.652 12.75C117.736 12.75 118.236 12.6667 118.236 12.8333C118.236 13.0833 117.986 13.3333 117.986 13.6667C117.819 13.6667 117.486 13.5833 117.486 13.3333C117.486 13.1667 117.569 12.9167 117.652 12.75ZM86.569 43.4167C86.569 44.0833 86.4023 45.0833 86.4857 45.75C86.4857 45.8333 86.4857 45.9167 86.569 45.9167C86.7357 45.9167 86.819 45.5833 86.819 45.5L86.569 43.4167ZM86.069 81.9167C86.1523 82.1667 86.069 82.5 85.819 82.6667L86.569 82.5833C86.569 82.3333 86.6523 82 86.9023 81.8333L86.069 81.9167ZM88.819 82.3333C88.9023 82.5833 88.569 82.6667 88.4023 82.6667L88.1523 82.9167H89.2357C89.319 82.9167 89.4857 82.9167 89.4857 82.8333C89.4857 82.6667 88.9857 82.4167 88.819 82.3333ZM117.069 21.75H117.152C117.402 21.75 117.736 21.8333 117.736 22.0833C117.736 22.25 117.402 22.3333 117.319 22.3333C117.236 22.3333 116.819 22.3333 116.819 22.25C116.819 22.1667 117.069 22 117.069 21.75ZM115.152 10.3333L114.819 10.5833C114.819 11.0833 114.569 10.8333 114.569 11.25L115.069 10.9167C115.319 10.9167 115.319 10.6667 115.319 10.5C115.319 10.4167 115.319 10 115.236 10C115.152 10 115.152 10.3333 115.152 10.3333ZM104.152 62.0833C104.152 61.8333 104.236 60.9167 104.486 60.9167C104.652 60.9167 104.736 61 104.819 61.0833L104.152 62.0833ZM44.4857 76.75C44.4857 76.9167 44.7357 77.6667 44.819 77.6667C45.069 77.6667 44.9023 76.9167 45.1523 76.8333L44.4857 76.75ZM109.736 49.25C109.819 49.3333 110.069 49.5833 110.069 49.75C110.069 49.9167 109.986 49.9167 109.819 49.9167C109.569 49.9167 109.402 49.75 109.402 49.5C109.402 49.3333 109.569 49.25 109.736 49.25ZM33.4023 99.3333C33.2357 99.6667 32.9857 100 32.569 100H32.4857C32.6523 99.8333 33.1523 99.1667 33.319 99.1667C33.4023 99.1667 33.4023 99.25 33.4023 99.3333ZM117.652 31.3333C117.569 31.3333 117.402 31.3333 117.402 31.4167C117.402 31.5 117.569 31.5833 117.652 31.6667L117.986 31.1667C117.986 31.0833 117.902 30.6667 117.736 30.6667C117.569 30.6667 117.652 31.25 117.652 31.3333ZM48.4023 70.5C48.319 70.5833 48.1523 70.8333 48.1523 70.9167C48.1523 71.1667 48.319 71.1667 48.4857 71.1667C48.6523 71.1667 48.7357 71.1667 48.7357 71C48.7357 70.8333 48.4857 70.5833 48.4023 70.5ZM113.986 18C113.736 18.0833 113.569 18.3333 113.652 18.5833L113.402 19C113.819 18.5 114.319 18.1667 114.319 17.4167L113.986 18ZM47.319 72.75C47.2357 72.75 47.069 72.75 47.069 72.8333C47.069 72.9167 47.1523 73 47.2357 73C47.4857 73 47.4857 72.6667 47.4857 72.4167L47.7357 72.0833C47.6523 72.0833 47.2357 72 47.2357 72.25C47.2357 72.4167 47.2357 72.5833 47.319 72.75ZM115.569 35.9167L115.652 36.5833L116.069 36.75L115.986 36.0833L115.569 35.9167ZM42.819 77.1667C42.819 77.25 42.819 77.75 42.9857 77.75C43.069 77.75 43.1523 77.5833 43.1523 77.5C43.1523 77.5 43.569 77.5 43.569 77.4167C43.569 77.3333 42.9023 77.1667 42.819 77.1667ZM48.9857 69.25C48.9023 69.3333 48.7357 69.5 48.7357 69.6667C48.7357 69.8333 48.9023 69.8333 48.9857 69.8333C49.1523 69.8333 49.319 69.75 49.319 69.5833C49.319 69.4167 49.069 69.3333 48.9857 69.25ZM58.069 74.3333L57.9023 75C58.069 75 58.4023 75 58.4023 74.75C58.4023 74.5833 58.2357 74.4167 58.069 74.3333ZM77.2357 16.4167L77.7357 17.3333C77.4023 17.3333 77.2357 17.25 77.2357 16.9167V16.4167ZM85.569 83.5C85.569 83.5833 85.7357 84 85.819 84C85.9023 84 85.9023 83.75 85.9023 83.75C85.9857 83.75 86.319 83.6667 86.319 83.6667C86.319 83.5833 85.6523 83.5 85.569 83.5ZM109.986 24.4167C109.986 24.5 109.986 24.9167 110.236 24.9167C110.319 24.9167 110.319 24.6667 110.319 24.5833C110.319 24.5833 110.736 24.5833 110.736 24.5H110.569L109.986 24.4167ZM101.319 63.5C101.319 63.5833 101.402 63.75 101.569 63.75C101.652 63.75 101.819 63.6667 101.902 63.5833C101.902 63.5 101.736 63.4167 101.652 63.4167C101.569 63.4167 101.402 63.4167 101.319 63.5ZM111.652 19.8333C111.736 19.9167 111.819 20.1667 111.986 20.1667C112.069 20.1667 112.069 20.0833 112.069 20C112.069 19.8333 111.986 19.75 111.819 19.75L111.652 19.8333ZM88.9857 80.75V81.0833C88.9857 81.25 89.069 81.3333 89.2357 81.3333H89.4023L88.9857 80.75ZM115.569 23.75C115.569 23.9167 115.652 24.0833 115.819 24.0833C115.902 24.0833 115.986 24 115.986 23.9167C115.986 23.75 115.819 23.75 115.736 23.75H115.569ZM114.236 11.6667C114.236 11.75 114.319 12 114.486 12C114.569 12 114.569 11.9167 114.569 11.8333C114.569 11.75 114.569 11.5833 114.402 11.5833L114.236 11.6667ZM87.2357 48.5833C87.2357 48.6667 87.319 48.9167 87.4023 48.9167C87.569 48.9167 87.569 48.75 87.569 48.6667C87.569 48.5833 87.4857 48.5 87.4023 48.5C87.319 48.5 87.319 48.5833 87.2357 48.5833ZM113.152 16.9167C113.152 17 113.236 17.1667 113.319 17.1667C113.486 17.1667 113.569 17 113.569 16.8333L113.152 16.9167ZM99.6523 59.4167C99.6523 59.5833 99.7357 59.75 99.9023 59.75C99.9857 59.75 100.069 59.5833 100.069 59.5L99.6523 59.4167ZM39.319 85.5833C39.319 85.75 39.4023 85.9167 39.569 85.9167C39.6523 85.9167 39.6523 85.8333 39.6523 85.75C39.6523 85.5833 39.569 85.5833 39.4023 85.5833H39.319ZM57.569 76C57.569 76.1667 57.6523 76.3333 57.819 76.3333C57.9023 76.3333 57.9023 76.25 57.9023 76.1667C57.9023 76 57.819 76 57.6523 76H57.569ZM111.319 17.5833C111.319 17.8333 111.402 17.8333 111.652 17.8333C111.652 17.6667 111.569 17.5 111.402 17.5C111.319 17.5 111.319 17.5833 111.319 17.5833ZM67.7357 54.25V54.4167C67.7357 54.5833 67.7357 54.8333 67.9857 54.8333H68.069L67.7357 54.25ZM86.819 35.1667C86.9023 35.5 86.819 35.75 87.2357 35.75L86.819 35.1667ZM59.319 72.6667L59.1523 73L59.4023 72.6667C59.4857 72.6667 59.569 72.5833 59.569 72.5C59.569 72.4167 59.569 72.3333 59.4023 72.3333C59.319 72.3333 59.319 72.5833 59.319 72.6667ZM57.819 75.4167C57.819 75.5 57.9023 75.6667 58.069 75.6667C58.1523 75.6667 58.1523 75.6667 58.1523 75.5833C58.1523 75.5 58.1523 75.3333 57.9857 75.3333C57.9023 75.3333 57.9023 75.4167 57.819 75.4167ZM119.736 26.8333C119.736 27.0833 119.819 27.3333 120.069 27.3333L119.736 26.6667V26.8333ZM113.986 12.25C113.986 12.3333 114.152 12.5833 114.236 12.5833C114.319 12.5833 114.319 12.5 114.319 12.5C114.319 12.3333 114.236 12.25 114.069 12.25H113.986ZM92.819 75.4167C92.819 75.5 92.9023 75.75 92.9857 75.75C93.1523 75.75 93.1523 75.5833 93.1523 75.5L92.819 75.4167ZM66.569 57.8333C66.569 57.9167 66.6523 58.1667 66.7357 58.1667C66.9023 58.1667 66.9023 58 66.9023 57.9167L66.569 57.8333ZM92.6523 78.5833C92.6523 78.6667 92.7357 78.9167 92.819 78.9167C92.9857 78.9167 92.9857 78.75 92.9857 78.6667L92.6523 78.5833ZM49.9023 74.8333C49.9023 74.9167 49.9857 75.1667 50.069 75.1667C50.2357 75.1667 50.2357 75 50.2357 74.9167L49.9023 74.8333ZM109.652 25.4167C109.736 25.6667 109.652 26 110.069 26L109.652 25.4167ZM111.986 19.1667C111.986 19.25 112.069 19.5 112.152 19.5C112.319 19.5 112.319 19.3333 112.319 19.25L111.986 19.1667ZM112.319 18.5C112.319 18.5833 112.402 18.8333 112.486 18.8333C112.652 18.8333 112.652 18.6667 112.652 18.5833L112.319 18.5ZM49.6523 75.5833C49.6523 75.6667 49.6523 75.8333 49.7357 75.8333C49.819 75.8333 49.9023 75.75 49.9857 75.75C49.9857 75.5833 49.9023 75.5833 49.7357 75.5833H49.6523ZM111.236 34.1667C111.319 34.4167 111.319 34.4167 111.569 34.4167C111.569 34.25 111.486 34.1667 111.319 34.1667H111.236ZM116.986 32C116.986 32.0833 116.986 32.25 117.152 32.25H117.319C117.319 32.0833 117.152 32 116.986 32ZM87.7357 51.75C87.7357 51.8333 87.7357 52 87.9023 52H88.069C88.069 51.8333 87.9023 51.75 87.7357 51.75ZM101.069 64.0833C101.069 64.1667 101.069 64.3333 101.236 64.3333H101.402C101.402 64.1667 101.236 64.0833 101.069 64.0833ZM112.902 17.5833C112.902 17.75 113.069 17.75 113.152 17.75H113.319C113.319 17.5833 113.152 17.5833 113.069 17.5833H112.902ZM110.986 34.8333L111.152 35.0833C111.236 35.0833 111.319 34.9167 111.319 34.8333H110.986ZM113.569 16.1667C113.569 16.25 113.569 16.3333 113.652 16.3333H113.902C113.902 16.25 113.819 16.1667 113.652 16.1667H113.569ZM74.4023 46.9167L74.1523 47.3333C74.4023 47.4167 74.4023 47.0833 74.4023 46.9167ZM50.9857 78.9167H50.9023C50.9023 79 50.9023 79.0833 50.9857 79.1667C51.069 79 51.069 78.9167 50.9857 78.9167ZM186.993 40.75C186.16 40.75 186.327 42.4167 185.827 42.4167L184.66 43.6667C184.16 43.6667 183.577 44.5833 183.327 45C182.827 45 182.66 45.9167 182.66 46.3333L181.243 47.5C181.243 48.0833 179.91 47.9167 179.91 48.5L179.41 49.3333C179.16 49.3333 178.743 49.4167 178.577 49.6667C178.577 50.25 177.743 50.5833 177.243 50.5833C177.243 50.9167 176.993 51.25 176.66 51.4167C176.66 51.6667 176.493 51.75 176.243 51.75H176.077C176.077 52.25 175.16 52.8333 174.743 53.0833L174.077 54C174.077 54.3333 174.493 54.3333 174.743 54.3333C175.41 53.6667 175.993 52.9167 176.743 52.3333C177.41 52.3333 177.327 51.6667 177.993 51.6667L178.327 51.25H179.16C179.493 50.8333 179.66 50.3333 180.327 50.3333L180.993 49.6667H181.743C181.993 49.25 182.243 48.9167 182.827 48.9167L183.41 48.5C183.41 48.5 183.41 48.3333 183.493 48.3333C183.493 48.3333 183.743 48.8333 183.743 48.9167C183.327 48.9167 182.66 50 182.493 50C182.493 50.3333 182.16 50.3333 182.16 50.6667C182.16 50.9167 182.243 51.25 181.827 51.25C181.827 51.8333 181.077 52.0833 180.66 52.3333L180.243 53.4167C180.243 53.8333 179.577 53.3333 179.577 54.1667L178.91 55C178.91 55.8333 177.91 55.9167 177.91 56.5L177.243 56.75L178.16 56.9167L178.577 56.25C178.827 56.25 179.577 55.9167 179.577 55.75C179.577 55.4167 180.243 54.9167 180.577 54.9167C181.41 54.25 182.243 53.75 183.077 53.0833C183.077 52.8333 183.993 51.5 184.243 51.5C184.577 51.5 184.743 51.75 184.743 51.25L185.077 50.5833L185.66 50.3333V51.6667L184.41 52.4167C184.327 53 183.41 53.0833 183.41 53.8333L182.993 54.3333C183.077 54.6667 182.827 54.9167 182.493 54.9167L182.16 55.5833C181.41 55.5833 181.16 56.0833 180.827 56.5833C180.41 56.5833 180.243 56.9167 179.91 56.9167C179.91 58 178.577 58.5 177.91 59.25C177.743 59.25 177.577 59.3333 177.577 59.5C177.577 59.75 177.577 59.9167 177.243 59.9167C176.743 60.0833 176.327 60.5 176.077 60.9167C176.077 61.25 175.827 61.3333 175.577 61.3333H175.41C175.41 61.5833 175.41 61.8333 175.16 61.8333H174.743L174.327 62.5C174.077 62.5 173.743 62.5833 173.743 62.9167L173.16 63C173.077 63.5 173.16 63.9167 172.493 63.9167C171.743 64.5833 168.91 65.75 168.91 66.3333V66.75C166.827 67.1667 168.41 68.1667 166.577 68.1667H165.493C165.577 68.5 165.493 68.8333 165.077 68.8333C165.077 69.1667 164.827 69.25 164.827 69.6667C164.827 70.0833 165.243 71.0833 165.41 71.5C165.66 71.5 165.993 71.6667 166.16 71.9167C166.41 71.9167 166.493 72.0833 166.493 72.3333V72.5C166.827 72.8333 167.41 73.4167 167.993 73.4167C168.91 73.4167 168.493 74.5 169.243 74.5V75.5H168.91C168.66 75.5 168.577 75.3333 168.577 75.0833L167.66 74.8333V75.5L168.327 75.6667L168.91 76.0833C168.91 76.3333 168.743 77.8333 169.16 77.8333C169.41 77.8333 169.577 77.75 169.577 78.0833C169.91 78.1667 170.243 78.5 170.243 78.8333C170.993 79.3333 171.493 80.0833 172.16 80.5833L172.577 81.4167C172.66 81.4167 172.827 81.4167 172.827 81.5833C172.827 81.6667 172.577 81.8333 172.493 81.9167C172.827 82.0833 173.16 82.4167 173.16 82.75C173.577 83.25 173.993 83.6667 174.493 84.0833C175.077 84.0833 175.243 85 175.91 85L176.16 85.75C176.91 86.3333 177.577 87.0833 177.91 88C177.327 87.9167 176.66 87.4167 176.327 87C175.743 87 175.327 86.4167 174.743 86.4167L173.16 85.3333C172.243 85.3333 170.493 84.0833 169.743 84.0833C168.493 83 167.077 82.0833 166.077 80.75C165.993 80.75 165.41 81 165.41 81.0833C165.41 81.1667 165.493 81.1667 165.577 81.1667C165.993 81.1667 165.493 81.5 165.327 81.5C165.16 81.5 165.077 81.4167 165.077 81.25L163.827 80.0833C163.827 80.5833 163.243 80.25 163.077 80.0833L161.827 80.1667L161.41 81.75C162.16 81.75 161.91 82.75 162.493 82.75C162.743 82.75 163.077 82.8333 163.077 83.1667C163.827 83.1667 163.743 84.0833 164.577 84.0833C164.577 84.5 164.993 84.75 165.41 84.75C165.41 84.9167 165.493 85.0833 165.66 85.0833C165.993 85.0833 166.077 85.1667 166.077 85.5L165.243 85.8333L164.493 85.75C164.243 85.4167 163.827 84.9167 163.827 84.4167C163.66 84.25 163.493 84.0833 163.243 84.0833C162.993 84.0833 163.16 84.5 162.993 84.5C162.66 84.5 161.993 83.8333 161.827 83.6667L160.91 83.5L161.493 83.75L161.743 84.4167C161.077 84.4167 162.493 85.6667 162.577 85.75L163.493 86.0833C163.493 86.6667 164.077 87.0833 164.493 87.5C164.493 87.8333 163.91 88.4167 164.493 88.4167C164.493 88.75 164.66 88.9167 164.993 88.9167C165.327 88.9167 165.827 88.75 166.077 89.0833C166.077 89.4167 165.993 89.6667 166.41 89.6667H166.66C166.66 90.0833 166.577 90.5 167.16 90.5H167.327L168.077 90.75L168.743 91.3333C168.827 91.3333 168.993 91.3333 168.993 91.5C168.993 91.8333 168.577 92.1667 168.243 92.1667C167.993 92.1667 167.993 91.8333 167.993 91.6667C167.743 91.6667 167.493 91.5833 167.41 91.3333L166.66 90.75H165.327C165.16 90.5833 164.91 90.3333 164.66 90.3333C164.493 90.3333 164.493 90.5 164.493 90.5833C164.493 91.25 164.827 91.0833 165.327 91.0833L165.243 91.3333H164.41L163.827 90.75C163.493 90.75 163.243 90.6667 162.993 90.4167L162.743 89.6667L162.16 89.0833C161.493 89.0833 161.41 88.4167 160.743 88.4167C160.327 88.4167 160.243 88.5 160.243 88L159.743 87.75L159.41 87.3333C158.91 87.3333 158.827 86.4167 158.16 86.4167C157.66 86.0833 157.16 85.75 156.743 85.3333C156.827 85.0833 156.743 84.75 156.41 84.75C156.41 84.5 156.16 84.4167 155.91 84.4167H155.66C155.493 84.1667 155.16 84.0833 154.91 84.0833C154.16 83.5 153.577 82.8333 153.077 82.0833C152.243 82.0833 152.577 81.1667 151.91 81.1667L151.243 80.5833C150.993 80.0833 150.91 79.4167 150.243 79.4167L149.577 78.9167C149.577 78.8333 149.577 78.5 149.41 78.5C149.16 78.5 148.743 79.1667 148.66 79.3333C148.66 79.5833 148.66 79.75 148.41 79.75C148.16 79.75 147.493 79.6667 147.493 80.0833C147.327 80.0833 146.91 80.1667 146.91 80.4167C146.66 80.4167 146.16 81.1667 144.077 81.25C144.077 81.6667 144.077 82.0833 143.577 82.0833H142.077L141.577 82.75L140.743 83.25L139.993 83.1667C139.827 83.3333 139.577 83.6667 139.577 83.9167C139.577 84.1667 140.077 84 140.077 84.25C140.077 84.4167 139.827 84.6667 139.66 84.8333C139.66 85 139.577 85 139.493 85C139.243 85 138.993 85 138.993 85.3333C138.66 85.5833 138.243 85.9167 137.827 85.9167L136.993 85.8333L136.577 86.4167C136.327 86.4167 135.993 86.5 135.91 86.75C134.993 86.75 134.16 87 133.243 87L132.91 86.5833C132.91 86.4167 132.993 86.4167 133.077 86.4167C133.41 86.4167 133.827 86.5833 133.827 86.0833C135.743 86.0833 136.243 85 138.327 85L138.577 84.6667C138.577 84.4167 138.077 84.4167 137.91 84.4167C136.243 84.4167 135.493 85.3333 133.91 85.3333L133.743 85.75C132.827 86 131.66 86.4167 130.66 86.4167L130.16 87C130.16 87 129.91 87 129.91 87.0833C129.91 87.1667 130.743 87.3333 130.91 87.3333C131.243 87.0833 131.66 86.8333 132.077 86.8333C132.243 86.8333 132.41 86.9167 132.577 87L131.993 87.75C131.493 87.75 131.327 88.0833 130.91 88.0833C130.91 88.75 129.493 88.75 129.077 88.75C128.827 88.75 128.66 88.6667 128.66 88.4167C128.66 88.1667 128.743 87.9167 128.91 87.75H127.993C127.827 87.5833 127.493 87.3333 127.243 87.3333C127.16 87.3333 127.077 87.4167 127.077 87.5C125.827 87.6667 124.493 87.8333 123.243 87.75L123.41 88.0833C124.327 88.0833 125.16 88.4167 125.827 88.4167L126.41 88.0833H127.827L128.327 88.6667L127.577 89.1667C126.493 89.1667 124.16 88.4167 124.16 89.6667H122.493C122.493 89.4167 122.91 89.3333 122.91 89.1667C122.91 89.0833 122.743 89.0833 122.743 89.0833H120.493L120.16 88.75C119.41 88.75 118.66 88.4167 117.91 88.4167C116.66 88.4167 117.827 87.6667 116.827 87.6667L116.41 87.75L115.743 87.4167C115.327 87.4167 115.16 87.1667 115.16 86.75C114.327 86.75 113.66 86.4167 113.077 86.4167C112.993 86.3333 112.827 86.0833 112.66 86.0833C112.493 86.0833 112.493 86.25 112.493 86.3333C112.16 86.25 111.827 86.3333 111.827 86.75C112.41 86.75 112.077 87 111.827 87.0833C111.827 87.1667 111.827 87.4167 111.66 87.4167C111.327 87.4167 110.993 86.6667 110.91 86.4167C110.66 86.4167 110.327 86.4167 110.327 86.75C110.327 86.9167 110.41 87.4167 110.16 87.4167C109.993 87.4167 109.743 87.1667 109.577 87C109.41 87 109.243 87 109.243 86.8333C109.243 86.5833 109.493 86.3333 109.66 86.25L110.827 86.0833L111.577 86.25L110.91 85.75C110.91 85.4167 110.66 85.3333 110.41 85.3333C109.743 85.3333 110.077 85.75 109.66 85.75C109.66 85.4167 109.327 85.3333 109.077 85.3333H108.827C108.91 85 108.743 84.75 108.41 84.75L107.743 84.3333C107.41 84.3333 106.077 84.0833 106.077 83.6667C106.077 83.5 105.993 83.4167 105.827 83.4167C104.993 83.4167 105.743 82.6667 104.827 82.4167L104.577 82.0833L104.16 82C103.91 81.8333 103.827 81.4167 103.827 81.1667L103.16 80.75V79.4167C102.91 79.4167 102.827 79.1667 102.827 79C102.827 78.5833 102.993 78.1667 103.16 77.8333C103.16 77.75 103.16 77.4167 102.993 77.4167H102.91V75.3333L103.243 74.5C103.327 74.5 103.493 74.5 103.493 74.3333C103.493 74.0833 103.327 73.9167 103.16 73.75L103.493 73.1667C103.993 73.4167 103.827 72.25 103.827 72.0833C104.077 71.9167 104.66 69.5 104.743 69.1667C105.66 69.4167 105.66 67.75 105.743 67.1667L106.327 66.4167C106.327 66.25 106.41 66.1667 106.577 66.1667C107.577 66.1667 106.827 65.9167 107.16 65.25C107.327 65.3333 107.493 65.75 107.493 65.9167C108.077 65.9167 108.077 64.3333 108.077 63.9167C108.41 63.9167 108.327 63.5833 108.66 63.5833V64.3333H108.993L109.66 63.6667C109.66 63.3333 109.993 63.1667 109.993 62.8333C110.243 62.5833 110.327 62.25 110.327 61.9167C111.993 61 112.993 59.0833 114.41 57.9167C114.577 57.9167 114.743 57.9167 114.743 58.0833C114.743 58.25 114.577 58.5 114.41 58.5833C114.41 59 114.077 59.1667 114.077 59.5833L114.827 58.75L115.827 58.3333C115.827 57.8333 116.743 57.1667 117.077 56.8333C116.993 56.6667 116.743 56.25 116.493 56.25C116.41 56.25 116.41 56.5 116.41 56.5833L116.743 56.75C116.66 56.9167 116.16 57.5833 115.91 57.5833C115.827 57.5833 115.827 57.3333 115.827 57.25C115.743 57.25 115.493 57.25 115.493 57.0833C115.493 56.75 116.16 56.1667 116.41 56C116.41 55.3333 117.16 54.8333 117.66 54.5L118.577 53.25C118.493 53.0833 118.327 52.9167 118.16 52.9167C117.993 52.9167 117.993 53.1667 117.993 53.25C117.243 53.5833 117.41 54.3333 117.16 54.3333C116.91 54.3333 116.743 54.25 116.743 54.5833L116.327 55.25L115.827 54.5833C115.827 54.0833 116.16 54.0833 116.16 53.6667L117.077 53.5C117.493 52.8333 118.327 52.0833 118.993 51.6667C119.66 51.6667 119.577 50.5833 120.327 50.5833C120.493 49.8333 121.743 48.5833 122.493 48.5833C122.577 48.5833 122.743 48.5833 122.743 48.75C122.743 49.0833 122.327 49.4167 122.077 49.6667C122.16 50 121.91 50.3333 121.493 50.3333L119.91 51.5L119.327 52.3333C119.16 52.3333 118.993 52.4167 118.993 52.5833C118.993 52.6667 119.077 52.9167 119.16 52.9167C119.327 52.9167 119.327 52.75 119.327 52.6667L119.91 52C120.077 52 120.243 51.9167 120.243 51.75C120.243 50.8333 120.91 51.5833 121.41 50.5833C122.077 50.5833 122.077 50 122.91 50C123.827 48.75 125.077 48.0833 126.077 47C126.077 46.6667 126.327 46.5833 126.577 46.5833H126.743L127.41 46.3333L128.66 45C128.66 44.9167 128.66 44.6667 128.827 44.6667C128.91 44.6667 128.993 44.9167 129.077 45C129.66 44.4167 130.577 43.8333 130.577 43C130.327 43 130.077 42.9167 130.077 42.5833V42.4167C129.993 42.4167 129.577 42.1667 129.577 42.0833C129.577 42 129.66 42 129.743 42C129.91 41.3333 129.993 40.5 129.91 39.8333L129.243 39.25V38.75C129.243 38.5 129.327 38.4167 129.577 38.4167C129.577 38 129.243 38.0833 129.243 37.5C129.743 37.4167 129.577 36.5833 129.577 36.25L129.91 35.8333C129.91 35.1667 130.077 29.0833 130.577 28.5C130.577 28.0833 130.91 27.8333 130.91 27.4167C130.91 27.0833 130.66 26.5 131.243 26.5C131.243 26.25 131.327 25.9167 131.577 25.8333C131.577 25.5833 131.66 25.4167 131.91 25.4167C132.577 25.4167 132.243 24.75 132.327 24.1667C132.66 24.1667 132.91 23.8333 132.91 23.5C133.41 23.5 133.493 23.5833 133.493 23C133.577 23 134.16 21.5 134.16 21.3333C134.66 21.3333 135.243 21.1667 135.66 20.8333C135.91 20.3333 136.243 19.75 136.66 19.3333C136.66 19.25 136.743 19.0833 136.827 19.0833C137.16 19.0833 137.66 19.4167 137.66 18.8333L138.327 18.25L139.493 18.1667C139.493 18.0833 140.493 17.5 140.66 17.5C140.827 17.25 141.16 17.1667 141.41 17.1667C141.243 16.9167 141.743 16.8333 141.91 16.8333C142.41 16.8333 143.16 17.0833 143.16 16.4167C143.743 16 143.993 15.75 144.327 15.6667C144.66 15.5833 144.993 15.5833 145.993 15.5833C146.16 15.3333 146.577 14.9167 146.91 14.9167C147.077 14.9167 147.077 15.0833 147.077 15.1667L148.577 14.5C148.91 14.5 149.327 14.4167 149.493 14.1667C149.827 14.1667 150.16 14.3333 150.41 14.5C150.743 13.8333 151.91 14.4167 152.41 13.9167L153.077 14.1667C153.66 14.0833 154.827 14.1667 155.41 14.5C155.41 13.6667 156.91 14.3333 157.827 14.8333L158.66 15.3333C158.91 15.5 159.16 15.75 159.493 15.9167L161.16 16.6667C161.16 17 164.493 18.5 164.827 18.5L165.41 19.1667C165.743 19.1667 165.743 19.5833 166.077 19.5833L166.743 20.1667C166.91 20.1667 168.577 21.8333 168.577 22.5H168.91V23.3333C168.91 26 168.743 29.6667 167.66 32.0833C167.493 32.0833 166.66 32.5833 166.66 32.75V34.25C166.327 34.4167 166.077 34.75 165.827 35.0833C165.577 35.0833 165.327 35.25 165.243 35.5C164.91 35.5 164.743 35.75 164.743 36V36.0833C164.577 36.6667 164.66 37.3333 163.91 37.3333H163.577L163.077 38.1667C163.077 38.3333 162.993 38.4167 162.827 38.4167C162.66 38.4167 162.493 38.3333 162.493 38.6667L161.993 39.3333H161.243C161.077 39.6667 160.91 40.0833 160.41 40.0833C159.993 41 159.327 41.75 158.66 42.5L157.66 42.75C157.327 43.3333 156.327 44.0833 155.743 44.4167C155.743 45.0833 154.41 45 154.41 45.5C153.827 45.9167 153.16 46.5 152.493 46.6667C152.493 47.1667 152.16 47.25 152.16 47.6667C151.743 47.6667 151.077 48.5833 150.91 48.5833C150.743 48.5833 150.493 48.6667 150.493 48.9167C150.493 49.3333 150.993 49.8333 151.243 50.0833C151.243 51.0833 152.16 52.75 152.91 53.25L153.16 54L154.41 54.1667C154.41 54.9167 154.743 55.4167 154.743 56C155.743 56 155.327 56.9167 156.243 56.9167C156.16 57.25 156.243 57.5833 156.66 57.5833C157.16 57.0833 159.66 55.5833 160.243 55.5833L160.743 54.9167C161.243 54.9167 161.41 54.5833 161.827 54.5833L162.243 54H162.993C163.327 53.75 163.577 53.3333 163.827 52.9167H164.243C164.577 52.5833 165.743 52.3333 165.743 52L166.66 51.8333C167.077 51.25 167.993 50.75 168.577 50.5C168.577 49.8333 170.327 49.5 170.827 49.3333C171.243 48.4167 173.16 47.4167 174.077 47.0833C174.077 47 174.077 46.75 174.16 46.75C174.327 46.75 174.41 47 174.493 47.0833L175.41 47.3333C175.827 47.0833 176.41 46.6667 176.91 46.6667L177.91 45.75C178.243 45.8333 178.577 45.75 178.577 45.3333C178.993 45.3333 178.827 45 179.243 45C179.743 44.5833 180.577 43.9167 181.243 43.8333C181.66 43.5 182.993 42.5833 183.077 42.0833C183.577 41.9167 184.077 41.5 184.41 41.0833L185.16 40.75C185.243 40.5 185.493 40.4167 185.743 40.4167C186.41 40.4167 186.327 39.3333 186.993 39.3333C188.077 38.3333 189.243 37.5 190.243 36.4167C190.493 36.4167 190.66 36.1667 190.743 36.1667C190.91 36.1667 191.077 36.3333 191.16 36.4167L190.243 37.0833C190.243 37.25 188.91 39 188.66 39.1667L187.993 40.0833C187.577 40.0833 187.243 40.4167 186.993 40.75ZM130.577 61.8333H130.327C129.66 61.8333 129.827 63.1667 129.743 63.5833C129.327 63.9167 128.993 64.4167 128.66 64.8333H127.41C127.41 64.5 127.66 64.5 127.66 64.0833V63.9167C127.577 63.9167 127.41 64.4167 127.41 64.5C127.077 64.4167 126.743 64.5833 126.743 65C126.743 65.3333 125.077 66.9167 124.493 67.1667L124.41 67.5833H123.827C123.743 68 123.327 69.1667 122.827 69.1667L121.743 69.9167L121.577 70.8333C122.16 70.8333 121.577 70.1667 122.16 70.1667C122.327 70.1667 122.493 70.1667 122.493 70.4167C122.493 70.8333 122.077 71.25 121.827 71.5C121.827 72.5833 121.16 72.25 120.243 72.5L119.993 73.0833C119.993 73.5 120.827 73.4167 121.077 73.4167C121.327 73.6667 121.577 73.75 121.91 73.75C122.077 73.1667 125.077 73.4167 125.577 73.4167C125.743 73.1667 126.827 72.5 127.077 72.5C127.327 72.5 127.993 72.75 127.993 72.25C128.743 71.6667 129.993 71.3333 130.91 71.1667C130.91 70.8333 131.327 70.8333 131.577 70.8333C131.743 70.8333 132.243 70.8333 132.243 71C132.243 71.1667 132.077 71.3333 131.91 71.5C131.493 71.5 130.16 72.1667 130.16 72.25L130.91 72.5L131.327 71.9167H132.077L132.243 71.5L132.91 71.1667C133.243 71.1667 133.827 71.3333 133.827 70.8333L134.41 70.5C133.91 70.5 134.327 70 134.493 69.8333C134.493 69.6667 134.577 69.5 134.743 69.5C134.993 69.5 135.16 69.5 135.16 69.25C135.577 69.1667 137.243 68.5 137.66 68.5C137.66 68.25 137.827 68.1667 138.077 68.1667H138.577C138.577 67.1667 139.993 67.9167 139.993 67.0833L140.327 66.5833C140.41 66.5833 140.91 66.3333 140.91 66.3333C140.91 66.25 140.743 66.25 140.743 66.25C140.993 65.25 139.827 65.9167 139.827 65.0833V64.8333L138.993 63.6667C139.077 63.3333 138.993 62.9167 138.577 62.9167C138.16 62.5 137.66 62.1667 137.66 61.5833C137.41 61.6667 137.327 61.25 137.327 61.0833C137.327 60.1667 136.327 60.6667 136.327 59.75C136.16 59.75 135.827 58.4167 135.493 58.4167C135.077 58.4167 134.41 59.8333 133.827 60.25C133.577 60.25 133.327 60.3333 133.243 60.5833L132.66 60.9167C133.077 60.9167 132.66 61.4167 132.577 61.5833L131.743 61.8333L131.327 60.9167C131.16 60.9167 131.493 62.25 130.91 62.25C130.66 62.25 130.577 62 130.577 61.8333ZM154.743 24.8333C154.743 25.5 152.91 24.9167 152.577 25.4167L151.827 25.1667L151.077 25.75C150.493 25.75 149.743 26.0833 148.91 26.0833L148.577 26.5C148.41 26.5 148.16 26.5833 148.16 26.75V26.8333C147.577 27.3333 146.66 27.6667 145.91 27.75L145.41 28.5C145.41 29 145.493 29.1667 144.91 29.1667L144.743 29.75H144.077C144.077 30.0833 143.993 30.4167 143.827 30.6667C144.077 30.6667 144.077 31.1667 143.827 31.1667V32.25L144.41 32.75C143.493 32.75 144.91 34.0833 145.077 34.25V35C145.327 34.9167 145.41 35.1667 145.41 35.3333C145.41 35.6667 144.827 36.0833 145.41 36.0833L146.327 35.6667C146.327 35.4167 146.243 35.0833 146.577 35.0833H146.827C146.91 34.5833 147.66 34.9167 147.66 34.5833C147.66 34.3333 147.66 34.0833 147.993 34.0833C147.993 33.5 150.243 32.4167 150.243 32.0833C150.993 31.6667 151.743 30.8333 152.66 30.75L153.077 29.9167L153.91 29.1667C153.91 28.5833 154.16 27.9167 154.493 27.5C154.91 27.5 155.243 27.3333 155.243 26.8333L155.16 25L154.743 24.8333ZM162.827 35.0833C162.243 35.0833 162.16 35.0833 162.16 35.75C161.743 36.1667 161.327 36.5 160.827 36.8333L160.66 37.75C160.16 37.75 160.243 39.0833 159.66 39.0833C158.993 39.5 158.243 40.0833 157.41 40.0833L156.91 40.75C156.827 40.75 156.66 40.8333 156.66 40.9167C156.66 41.1667 156.91 41.5 157.077 41.6667C157.577 41.0833 158.327 40.75 158.993 40.4167L159.243 39.6667L160.577 38.6667C160.577 38.3333 160.743 38 161.077 38H161.16C161.91 37.3333 162.577 36.4167 162.993 35.5C162.41 35.5 163.077 35.0833 163.41 35.0833C163.827 34.75 164.243 34.25 164.493 33.75C164.493 33.5 164.41 33.0833 164.743 33.0833H165.41V32.8333C165.327 32 164.827 33.25 164.827 32.4167C164.243 32.4167 163.827 33.25 163.827 33.75L163.077 34.0833C163.077 34.4167 162.827 34.6667 162.827 35.0833ZM121.577 52.6667C120.993 52.6667 120.577 52.5 120.577 53.25C119.993 53.25 119.91 53.25 119.91 53.8333C119.493 53.9167 118.66 54.1667 118.66 54.6667C118.493 54.75 118.327 54.9167 118.327 55.0833C118.327 55.25 118.493 55.25 118.577 55.25C118.993 55.0833 122.41 52.0833 122.827 51.6667C123.577 51.6667 123.41 50.5833 124.16 50.5833L124.827 50C124.827 49.75 124.993 49.5833 125.243 49.5833H125.41C125.827 49.1667 126.743 48.3333 127.41 48.25L127.827 47.6667C127.91 47.6667 128.077 47.5833 128.077 47.5C128.077 47.3333 127.91 47 127.743 47C127.66 47 127.66 47.0833 127.66 47.1667C127.16 47.25 126.16 48.1667 125.827 48.5833C125.243 48.5833 123.66 50 123.41 50.5833C122.577 50.5833 122.577 51.6667 121.91 51.6667L121.243 52L121.577 52.6667ZM118.993 88.75C118.993 89 119.16 89.1667 119.41 89.1667H119.577C119.743 89.25 120.327 89.5 120.327 89.6667H117.993C117.743 89.4167 116.493 89.1667 116.16 89.1667L115.493 89.25C114.827 89 113.577 88.3333 113.16 87.75C113.077 87.9167 112.91 88.0833 112.66 88.0833H112.493L113.077 87.3333C113.41 87.3333 113.743 87.5 113.91 87.75C114.493 87.75 114.327 87.3333 114.827 87.3333C114.827 87.6667 115.077 87.75 115.327 87.75H115.577C115.827 88.3333 116.743 87.8333 116.993 88.4167C116.91 88.75 117.16 89.0833 117.577 89.0833C117.993 89.0833 118.577 88.8333 118.993 88.75ZM152.16 56.4167L152.493 56.5833C152.577 56.5 152.66 56.4167 152.66 56.3333C152.66 56.0833 151.327 54 151.243 53.75C151.243 53.4167 151.077 53.0833 150.66 53.0833H150.577C150.493 53 150.243 52.9167 150.243 52.8333C150.243 52.6667 150.577 52.6667 150.66 52.6667C150.743 52.5 150.91 52.1667 150.91 51.9167C150.91 51.75 150.827 51.5833 150.66 51.5833C150.41 51.5833 150.243 51.5833 150.243 51.25L149.327 51.5C149.327 52 149.577 52.5 149.577 53.1667L149.327 53.5C149.493 53.6667 149.577 53.9167 149.577 54.1667C149.91 54.0833 150.243 54.3333 150.243 54.75L151.16 54.9167C151.41 55.4167 151.743 56 152.16 56.4167ZM127.077 89.6667C127.493 89.6667 127.243 90.0833 127.66 90.0833C127.66 90.1667 127.66 90.4167 127.827 90.4167C127.993 90.4167 128.243 90.25 128.327 90.0833C128.327 89.75 128.66 89.6667 128.993 89.6667C129.16 89.6667 129.577 89.5833 129.577 89.8333C129.577 90.0833 129.41 90.25 129.243 90.4167L127.077 90.8333C127.077 91.25 126.41 90.8333 126.41 91.5C126.41 91.5833 126.41 91.6667 126.243 91.6667C125.993 91.6667 125.743 91.5 125.493 91.3333L124.827 91.5L123.993 91.0833C123.743 91.0833 123.41 91 123.243 90.8333C123.243 90.5 123.827 90.4167 124.077 90.4167C124.243 90.25 124.493 90.0833 124.66 90.0833L125.327 90C125.41 90 125.41 90.25 125.41 90.3333L126.243 90.4167L127.077 89.6667ZM164.493 72.8333C164.493 73.75 164.827 74.1667 165.41 74.8333C165.577 74.8333 165.743 74.9167 165.743 75.0833C165.743 75.5833 165.827 75.5 166.327 75.5C166.577 75.5 166.66 75.3333 166.66 75.0833C166.41 74.8333 166.327 74.5 166.327 74.1667C166.91 74.1667 166.327 73.0833 165.91 73.0833C165.743 73.0833 165.743 73.3333 165.743 73.4167C165.743 73.75 166.077 73.75 166.077 74.1667L165.743 74.8333L165.41 74.1667C165.41 73.75 165.243 72.8333 164.66 72.8333L164.493 72L165.077 72.5L165.41 72.25C165.077 72.0833 164.827 71.75 164.577 71.5L163.66 71.25C163.493 71.25 163.493 71.8333 163.493 71.9167C164.077 71.9167 163.827 72.8333 164.493 72.8333ZM146.66 25.1667C146.66 24.8333 146.327 24.75 146.077 24.8333C146.077 25.4167 146.577 24.9167 146.66 25.4167C146.16 25.5833 145.66 25.8333 145.16 26.0833L145.077 27.0833C145.743 26.75 146.327 26.25 146.91 25.75H147.41L147.743 25.4167C148.243 25.1667 151.16 24.5833 151.16 24.25C151.16 24.1667 150.91 24.1667 150.91 24.1667C149.493 24.1667 147.91 25.1667 146.66 25.1667ZM113.16 58.3333C113.16 58.75 112.91 59.25 112.493 59.4167C111.91 59.4167 112.41 60.4167 111.827 60.4167L111.577 60.3333L110.66 61.4167L109.993 61.5833C109.993 61.4167 110.077 61.0833 110.327 61.0833L110.577 60.5833C109.66 60.5833 111.577 59.25 111.577 59.25C111.66 59.1667 111.91 58.6667 112.077 58.6667C112.16 58.6667 112.16 58.8333 112.16 58.9167C112.66 58.9167 112.66 58.3333 113.16 58.3333ZM108.66 67.5833C108.077 67.5833 107.66 69.6667 107.577 70.1667L108.077 68.8333C108.243 68.8333 108.327 68.75 108.327 68.5833C108.327 68.4167 108.327 68.1667 108.577 68.1667C108.66 68 108.66 67.5 108.827 67.5L108.993 67.5833C109.493 66.75 110.327 66 110.327 65C110.327 64.8333 110.243 64.8333 110.16 64.8333C109.743 65.4167 108.66 66.75 108.66 67.5833ZM149.91 56.6667C149.91 56.9167 150.16 57.25 150.41 57.25H151.16L152.16 57.6667V58.4167L152.493 58.75C152.66 58.8333 152.91 58.9167 153.077 58.9167C153.243 58.9167 153.41 58.8333 153.41 58.5833C152.827 58.1667 152.243 57.5 151.827 56.9167C151.827 56.75 151.743 56.5833 151.577 56.5833C151.327 56.5833 151.077 56.75 150.91 56.9167L149.91 56.6667ZM143.16 33.4167C143.16 33.75 142.827 33.9167 142.827 34.25L143.16 35C143.41 35 143.493 35.5 143.493 35.6667L144.077 35.5C144.077 34.75 143.993 33.4167 143.16 33.4167ZM171.16 54.6667C170.993 54.9167 170.827 55.3333 170.827 55.6667L171.16 56.25C171.327 56.25 171.493 56.1667 171.66 56C171.743 55.6667 172.077 55.5833 172.327 55.5833L172.493 54.9167L171.16 54.6667ZM143.16 28.1667C143.16 28.6667 142.743 29.1667 142.493 29.5C142.493 29.8333 142.243 30.0833 142.243 30.25C142.243 30.4167 142.66 30.4167 142.743 30.4167C142.993 30.4167 143.16 30.3333 143.16 30.0833C143.16 29.8333 143.077 29.5 143.493 29.5C143.577 29.3333 143.743 29.1667 143.743 29C143.743 28.8333 143.66 28.8333 143.577 28.8333L143.16 28.1667ZM169.577 56.6667C169.577 57.3333 168.327 57.1667 168.327 57.75C168.327 57.9167 168.41 58 168.577 58C168.91 58 169.243 57.75 169.493 57.5833H170.16L170.327 56.9167H170.66C170.66 56.8333 170.41 56.8333 170.41 56.8333L169.577 56.6667ZM127.41 62.5833C126.993 63.0833 126.577 63.6667 126.077 64.0833L126.743 64.1667L127.743 63.25C127.827 63.25 128.16 63.25 128.16 63.0833C128.16 62.8333 127.827 62.5 127.493 62.5C127.493 62.5 127.41 62.5 127.41 62.5833ZM114.077 60.25C114.077 60.25 114.493 60.25 114.493 60.1667C114.493 60.0833 114.16 60 114.077 60C114.077 60.6667 113.66 60.1667 113.493 59.9167C113.327 60.0833 112.243 61.3333 112.243 61.6667C112.243 61.8333 112.41 61.8333 112.493 61.8333L112.827 61.25C113.16 61.25 113.327 60.9167 113.66 60.9167L114.077 60.25ZM173.16 59.5833C172.993 60 172.66 60.3333 172.41 60.6667C172.493 60.5833 172.577 60.5833 172.743 60.5833L173.827 60.1667C173.993 60 174.077 59.75 174.077 59.4167C174.077 59.3333 173.993 59.25 173.91 59.25L173.16 59.5833ZM169.577 92C169.91 92 170.743 92.4167 170.743 92.8333C170.743 93 170.243 93 170.077 93C169.827 93 169.577 93 169.577 92.6667C169.41 92.6667 169.243 92.6667 169.243 92.5C169.243 92.3333 169.493 92.0833 169.577 92ZM133.16 57.9167C133.16 58.25 132.91 58.5833 132.577 58.75L132.243 59.25C132.827 59.1667 133.41 58.9167 133.827 58.5833L133.66 57.9167H133.16ZM153.077 56.6667C153.077 57.1667 153.41 57.4167 153.41 57.9167L154.41 58.25C154.41 57.5 153.66 57.0833 153.077 56.6667ZM148.993 54.5833L148.327 55.3333L148.827 56L148.993 55.3333C149.243 55.4167 149.577 55.3333 149.577 55L148.993 54.5833ZM107.577 71.4167C107.327 71.4167 106.91 72.4167 106.91 72.6667C106.91 72.75 106.993 72.8333 107.077 72.8333L107.743 72.4167V72.1667C107.743 72.0833 107.743 71.4167 107.577 71.4167ZM167.16 58.5833C167.243 58.75 167.327 59.5833 167.41 59.5833C167.66 59.5833 168.16 58.5833 168.243 58.3333C167.827 58.3333 167.577 58.5833 167.16 58.5833ZM130.91 59.9167C130.327 59.9167 130.327 60.5833 129.743 60.5833L129.327 60.9167L129.827 61.25C130.077 60.9167 130.41 60.25 130.91 60.25C130.993 60.1667 131.16 60 131.16 59.8333C131.16 59.75 131.077 59.5833 130.993 59.5833C130.91 59.5833 130.91 59.8333 130.91 59.9167ZM109.66 62.1667C109.66 62.5833 109.327 62.5833 109.327 63L108.66 63.5833C108.66 63 108.91 62.1667 109.66 62.1667ZM112.493 62.25C112.077 62.5833 111.66 62.8333 111.243 63.0833C111.243 63.1667 111.493 63.8333 111.577 63.8333V63.6667L112.16 62.9167C112.16 62.5 112.493 62.6667 112.493 62.25ZM123.493 64.5C123.243 64.5 122.827 64.6667 122.827 64.9167C122.827 65.0833 123.16 65.1667 123.243 65.25C123.243 64.75 123.827 64.6667 123.827 64.1667C123.91 64.1667 124.243 64.1667 124.243 64.0833C124.243 64 124.077 63.9167 123.993 63.8333C123.66 63.8333 123.493 64.1667 123.493 64.5ZM114.827 56.5833V56.9167C114.827 57.5833 114.577 57.5833 113.91 57.5833C114.077 57.25 114.41 56.5833 114.827 56.5833ZM164.827 60.25C164.743 60.3333 164.577 60.5 164.577 60.6667C164.577 60.75 164.66 60.75 164.827 60.75C164.993 60.75 165.743 60.5 165.743 60.3333C165.743 60.25 165.577 60.25 165.577 60.25H164.827ZM115.827 59.9167C115.66 59.9167 115.493 60 115.493 60.1667C115.493 60.3333 115.577 60.5833 115.66 60.5833C115.993 60.5833 116.16 60 116.16 59.6667L115.827 59.9167ZM124.827 92.6667L124.493 93C124.327 93 123.91 93.0833 123.91 93.3333L123.493 92.9167L124.827 92.6667ZM176.66 57.5833C176.327 57.5833 176.41 57.9167 176.077 57.9167C176.077 58 176.077 58.25 176.243 58.25C176.327 58.25 176.493 58 176.577 57.9167C176.743 57.9167 176.827 57.75 176.827 57.5833C176.827 57.5 176.827 57.25 176.743 57.25C176.66 57.25 176.66 57.5833 176.66 57.5833ZM125.41 53.25C125.16 53.25 124.91 53.4167 124.91 53.6667C124.91 53.75 124.993 53.9167 125.077 53.9167C125.16 53.9167 125.16 53.75 125.16 53.6667C125.41 53.6667 125.577 53.5833 125.577 53.3333C125.577 53.25 125.577 53 125.493 53C125.41 53 125.41 53.1667 125.41 53.25ZM173.493 48.0833C173.41 48.1667 173.16 48.25 173.16 48.4167C173.16 48.5833 173.493 48.5833 173.577 48.5833L174.077 48.0833H173.493ZM125.743 50.6667L125.993 51.5833C126.077 51.5833 126.077 51.25 126.077 51.25C126.077 51.25 126.493 51.25 126.493 51.1667C126.493 51 125.91 50.75 125.743 50.6667ZM136.66 69.9167V70.1667L136.91 69.9167C137.077 69.9167 137.327 69.9167 137.327 69.75C137.327 69.5833 136.993 69.5 136.91 69.5C136.743 69.5 136.66 69.75 136.66 69.9167ZM128.66 73.1667C128.577 73.25 128.41 73.4167 128.41 73.5833C128.41 73.75 128.577 73.75 128.66 73.75C128.743 73.75 128.993 73.75 128.993 73.5833C128.993 73.4167 128.743 73.25 128.66 73.1667ZM113.827 57.5833C113.827 58.25 113.827 58.3333 113.16 58.3333L113.827 57.5833ZM138.993 68.5833L139.493 68.9167C139.66 68.9167 139.993 68.8333 139.993 68.5833H138.993ZM170.577 62.1667C170.493 62.1667 169.91 62.1667 169.91 62.3333C169.91 62.5 170.41 62.5 170.493 62.5L170.827 62L170.577 62.1667ZM166.077 65.25L165.827 65.9167C165.91 65.9167 166.327 65.9167 166.327 65.6667C166.327 65.5 166.243 65.3333 166.077 65.25ZM147.66 51.75V52.3333L148.327 52.25L147.66 51.75ZM166.327 76.5L166.827 77.1667C166.91 77.1667 166.993 77.1667 166.993 77.0833C166.993 76.9167 166.743 76.75 166.66 76.6667C166.41 76.6667 166.327 76.4167 166.327 76.25V76.5ZM159.243 64.5833L159.577 64.9167C159.743 64.9167 159.91 64.8333 159.91 64.6667L159.243 64.5833ZM171.16 61.8333C171.577 61.8333 171.827 61.4167 172.077 61.0833L171.16 61.8333ZM172.493 49.0833C172.493 49.25 172.577 49.4167 172.743 49.4167C172.827 49.4167 172.827 49.25 172.827 49.1667C172.827 49.0833 172.827 49 172.66 49C172.66 49 172.577 49.0833 172.493 49.0833ZM166.66 65C166.66 65.1667 166.743 65.3333 166.91 65.3333C166.993 65.3333 166.993 65.1667 166.993 65.0833C166.993 65 166.993 64.9167 166.827 64.9167C166.827 64.9167 166.743 65 166.66 65ZM122.16 53.75C122.16 53.9167 122.243 54.0833 122.41 54.0833C122.493 54.0833 122.493 53.9167 122.493 53.8333C122.493 53.75 122.493 53.6667 122.327 53.6667C122.327 53.6667 122.243 53.75 122.16 53.75ZM124.827 73.8333C124.827 73.9167 124.827 74.1667 124.993 74.1667C125.16 74.1667 125.16 74 125.16 73.9167C125.16 73.8333 125.077 73.75 124.993 73.75L124.827 73.8333ZM181.827 44.3333C181.827 44.4167 181.91 44.75 182.077 44.75C182.16 44.75 182.16 44.6667 182.16 44.5833C182.16 44.4167 182.077 44.3333 181.91 44.3333H181.827ZM162.16 62.25C162.16 62.4167 162.243 62.5 162.41 62.5C162.493 62.5 162.66 62.4167 162.827 62.3333L162.16 62.25ZM142.493 32.1667C142.493 32.25 142.577 32.5 142.66 32.5C142.827 32.5 142.827 32.3333 142.827 32.25C142.827 32.1667 142.743 32.0833 142.66 32.0833C142.577 32.0833 142.577 32.1667 142.493 32.1667ZM151.827 45.4167C151.827 45.5 151.91 45.75 151.993 45.75C152.16 45.75 152.16 45.5833 152.16 45.5C152.16 45.4167 152.077 45.3333 151.993 45.3333C151.91 45.3333 151.91 45.4167 151.827 45.4167ZM131.577 59.3333C131.577 59.4167 131.66 59.6667 131.743 59.6667C131.91 59.6667 131.91 59.5 131.91 59.4167C131.91 59.3333 131.827 59.25 131.743 59.25C131.66 59.25 131.66 59.3333 131.577 59.3333ZM166.66 59.6667C166.66 59.75 166.743 60 166.827 60C166.993 60 166.993 59.8333 166.993 59.75C166.993 59.6667 166.91 59.5833 166.827 59.5833C166.743 59.5833 166.743 59.6667 166.66 59.6667ZM163.077 87.8333C163.077 88.1667 163.66 88 163.827 87.9167L163.077 87.8333ZM143.16 32.4167C143.16 32.5833 143.243 32.75 143.41 32.75C143.493 32.75 143.493 32.6667 143.493 32.5833C143.493 32.4167 143.41 32.4167 143.243 32.4167H143.16ZM129.243 73.1667C129.243 73.3333 129.327 73.5 129.493 73.5C129.577 73.5 129.577 73.4167 129.577 73.3333C129.577 73.1667 129.493 73.1667 129.327 73.1667H129.243ZM128.66 63.25C128.66 63.4167 128.743 63.5833 128.91 63.5833C128.993 63.5833 128.993 63.5 128.993 63.4167C128.993 63.25 128.91 63.25 128.743 63.25H128.66ZM167.327 65.3333C167.327 65.5833 167.41 65.5833 167.66 65.5833C167.66 65.4167 167.577 65.25 167.41 65.25C167.327 65.25 167.327 65.3333 167.327 65.3333ZM140.327 67.9167C140.327 68 140.41 68.1667 140.493 68.1667C140.66 68.1667 140.827 68.0833 140.91 68L140.327 67.9167ZM162.827 70.5833C162.827 70.6667 162.827 70.9167 162.993 70.9167C163.077 70.9167 163.077 70.75 163.077 70.6667C163.077 70.5833 163.077 70.5 162.993 70.5C162.91 70.5 162.827 70.5833 162.827 70.5833ZM175.077 58.3333C175.077 58.4167 175.16 58.6667 175.243 58.6667C175.41 58.6667 175.41 58.5 175.41 58.4167L175.077 58.3333ZM155.743 25.5C155.743 25.5833 155.827 25.8333 155.91 25.8333C156.077 25.8333 156.077 25.6667 156.077 25.5833L155.743 25.5ZM158.66 83.8333C158.66 83.9167 158.743 84.1667 158.827 84.1667C158.993 84.1667 158.993 84 158.993 83.9167L158.66 83.8333ZM148.66 50.3333C148.66 50.4167 148.743 50.6667 148.827 50.6667C148.993 50.6667 148.993 50.5 148.993 50.4167L148.66 50.3333ZM166.66 75.8333C166.66 75.9167 166.743 76.1667 166.827 76.1667C166.993 76.1667 166.993 76 166.993 75.9167L166.66 75.8333ZM184.41 42.75C184.41 42.8333 184.493 43.0833 184.577 43.0833C184.743 43.0833 184.743 42.9167 184.743 42.8333L184.41 42.75ZM117.327 56C117.327 56.0833 117.41 56.3333 117.493 56.3333C117.66 56.3333 117.66 56.1667 117.66 56.0833L117.327 56ZM131.91 73.1667C131.91 73.25 131.993 73.5 132.077 73.5C132.243 73.5 132.243 73.3333 132.243 73.25L131.91 73.1667ZM126.077 74.5833C126.077 74.6667 126.16 74.8333 126.243 74.8333C126.327 74.8333 126.41 74.75 126.41 74.6667C126.41 74.5833 126.327 74.5 126.243 74.5C126.243 74.5 126.16 74.5833 126.077 74.5833ZM150.577 56C150.577 56.0833 150.66 56.3333 150.743 56.3333C150.91 56.3333 150.91 56.1667 150.91 56.0833L150.577 56ZM143.827 27.1667V27.5833C143.827 27.75 143.91 27.75 144.077 27.75L143.827 27.1667ZM162.827 36.75C162.827 36.8333 162.827 37.0833 162.993 37.0833C163.077 37.0833 163.077 36.9167 163.077 36.8333L162.827 36.75ZM123.243 74.5833C123.243 74.6667 123.327 74.8333 123.41 74.8333C123.493 74.8333 123.493 74.75 123.493 74.6667C123.493 74.5833 123.493 74.5 123.41 74.5C123.327 74.5 123.243 74.5833 123.243 74.5833ZM165.41 31.5C165.41 31.5833 165.493 31.75 165.66 31.75C165.743 31.75 165.743 31.75 165.743 31.6667C165.743 31.5833 165.66 31.5 165.577 31.5H165.41ZM185.077 42C185.077 42.1667 185.16 42.25 185.243 42.3333C185.327 42.3333 185.327 42.1667 185.327 42.0833L185.077 42ZM108.41 69.1667C108.41 69.3333 108.493 69.4167 108.577 69.5C108.66 69.5 108.66 69.3333 108.66 69.25L108.41 69.1667ZM128.993 48.25L128.827 48.5833L129.077 48.25C129.077 48.25 129.077 48 128.993 48V48.25ZM236.837 71.5C235.754 73.6667 234.337 73.0833 233.254 75.0833C232.671 75.3333 232.254 75.8333 231.921 76.4167C231.171 76.5833 230.504 77.1667 230.421 77.9167C230.004 78.25 229.671 78.6667 229.337 79.0833C228.671 79.3333 228.421 80.0833 228.004 80.5833C227.754 80.6667 223.504 84 223.421 84.1667L222.837 84.4167V83.75L223.587 83.5L224.171 82.5C224.754 82.3333 225.171 82 225.671 81.6667L226.087 81L224.337 81.8333H223.587L220.671 83.9167L220.754 84L220.421 84.8333C219.837 85.0833 219.254 85.3333 218.754 85.75L218.421 86.5833L217.587 86.8333C217.337 87.3333 217.087 87.75 216.754 88.1667L216.504 89.0833H216.004L214.754 90.3333L214.504 90.25L213.837 90.4167V90.5L213.171 91.0833C212.171 91.25 210.837 92.4167 209.921 93L208.921 92.6667L209.004 92.4167H209.837L213.254 90.1667C212.504 90.3333 211.837 90.75 211.087 91.0833L211.004 91.25L210.337 90.6667C210.254 90.5 210.087 90.1667 210.171 90C208.921 90.1667 208.004 90.9167 206.754 91.0833L206.087 91.5C205.587 91.5833 205.171 91.75 204.754 92C203.504 92.1667 201.504 92.5833 200.337 93H200.254L199.504 92.5833C197.587 93 196.921 92.25 195.421 92.25C195.171 92.25 195.004 92.3333 194.754 92.4167C194.421 92.8333 193.921 92.9167 193.421 92.9167H192.754V92.0833C192.254 92 191.754 91.9167 191.254 91.6667L190.587 91.75C189.587 91.4167 188.837 90.8333 187.837 90.5C187.671 90.3333 183.671 88 183.587 88L182.254 87.25C181.587 86.0833 180.504 85.8333 179.671 84.9167L179.004 83C179.171 82.6667 179.171 82.25 179.171 81.9167L178.754 81.4167L178.671 80.6667C178.171 80.5 178.337 79.9167 178.504 79.5833L178.171 79.3333L178.337 78.5L177.837 78.0833L178.087 77.4167C178.171 77.25 177.921 76.6667 177.837 76.5L177.921 75.75C177.587 75.9167 177.421 76.4167 177.421 76.75L176.754 77.25L176.587 78L175.921 77.6667L176.254 76.5833C175.921 75.75 176.254 75.25 176.254 74.5C176.254 74.1667 176.171 73.8333 175.921 73.5833C176.171 73 176.171 72.6667 176.004 72.0833C176.254 70.75 177.254 70.1667 177.254 68.6667L177.921 68.3333L178.587 66.6667C179.587 66.0833 179.421 64.4167 179.754 63.4167L179.337 63.3333C179.421 62.4167 180.004 61.75 180.087 60.8333L180.504 60.25L182.504 55.4167L182.837 55.25C183.087 54.5 183.921 53.6667 184.337 52.9167L184.087 52.3333C184.087 52 184.337 51.4167 184.754 51.5L185.171 50.6667L185.837 50.0833L186.087 48.75L186.837 48.3333C186.754 48.0833 187.004 47.5833 187.087 47.3333C187.171 47.75 187.504 48.25 187.754 48.5833L188.421 48.6667L188.671 48.4167L188.754 47.5833C189.504 46.5 190.921 45 191.254 43.75L190.837 43.1667C191.254 42.0833 192.171 41.1667 193.254 40.75C193.671 40.25 194.087 39.9167 194.337 39.3333C194.754 38.9167 195.337 38.6667 195.837 38.5C196.171 37.9167 196.671 37.4167 196.921 36.8333L197.587 36.5L198.087 35.6667C198.504 35.3333 199.004 35 199.504 34.8333L199.754 34.4167L200.587 34.5833C199.754 35.25 199.337 35.8333 198.254 36.1667L198.671 36.75L199.504 36.4167C199.754 35.8333 200.504 35.5 201.087 35.3333C201.837 34.4167 202.921 34.0833 204.004 33.5833L204.171 32.9167L203.337 33.5V33.5833L202.587 34L202.337 33.9167C203.087 32.4167 203.337 32.9167 204.337 32.0833L202.421 32.5L201.421 33.0833C199.421 31.8333 195.337 33.9167 193.671 35.1667L191.671 35.25C190.837 36 189.671 36.4167 188.587 36.75C188.171 37.0833 187.671 37.4167 187.171 37.6667L186.671 37.4167L186.504 36.6667C186.087 36.9167 185.587 36.8333 185.171 36.8333C185.337 36.6667 188.254 34.75 188.921 34.6667V34.5833L189.421 33.8333C190.337 33.6667 191.337 32.6667 192.504 32.3333C192.337 32.25 192.171 32.1667 192.004 32.1667C190.837 32.1667 188.337 33.25 187.254 33.8333L187.337 33.9167C186.337 34 186.004 34.1667 185.171 34.6667C183.337 35 172.754 42.1667 171.087 43.8333V44.5L170.254 44.8333C169.921 45.5833 168.004 47.1667 167.254 47.5833L166.587 47.6667C167.087 47.4167 167.337 46.9167 167.504 46.4167C168.254 45.8333 169.004 45.1667 169.504 44.3333L170.254 43.75L170.837 42.75C170.837 42.0833 171.504 41.5833 171.754 40.9167V40.6667L172.087 39.8333C172.421 39.5 172.837 39.4167 173.254 39.25L173.087 38.6667C175.087 38.1667 175.671 35.5833 177.754 35.25V34.5L178.504 34.25C179.171 33.75 179.754 33 180.504 32.6667L180.754 31.8333C182.587 31.0833 183.837 30.9167 185.004 29.4167C185.587 28.75 187.421 28.3333 188.254 27.9167C188.337 27.3333 188.921 27.3333 189.337 27.3333C190.504 27.3333 190.671 26.8333 191.504 26.25C192.087 25.4167 193.254 25.5833 194.171 24.6667C196.421 24.1667 198.504 23.1667 200.754 22.5C200.504 22.1667 200.004 22 199.587 22L199.671 21.9167L200.504 21.5833C200.921 21 201.671 20.8333 202.337 20.6667L202.254 20.75L202.337 21.5833C203.337 21.6667 212.254 19 213.837 18.5833L214.587 18.8333C215.754 18.25 217.087 18.3333 218.337 18.1667C218.254 18.25 218.421 18.4167 218.504 18.3333C218.587 18.25 220.421 17.75 220.587 17.75C220.671 17.75 220.837 17.8333 220.921 17.8333L221.337 17.5833C221.754 17.75 222.171 17.8333 222.587 17.75L222.671 17.5833H224.671L225.087 17.4167L225.171 17.5833C225.671 17.5833 226.087 17.5833 226.587 17.6667C227.171 17.3333 227.921 17.4167 228.587 17.4167C229.004 17.4167 229.421 17.5 229.754 17.6667L230.587 17.5C232.171 17.9167 235.587 18.6667 237.421 18.8333V19.0833C238.421 19.5833 240.171 20.1667 241.254 20.5C241.671 21 242.254 21.3333 242.837 21.5H243.421C243.837 22.1667 248.837 25.25 249.171 27.6667C249.587 28.0833 249.921 28.5833 250.254 29.0833L250.337 29.9167L250.921 30.5833C250.921 32.1667 252.254 33.3333 251.754 35.3333C251.921 35.5833 251.671 35.8333 251.837 36.0833L252.171 36.25C251.921 36.1667 251.754 36.4167 251.754 36.6667C251.754 37.5833 252.004 38.3333 252.254 39.25C251.754 41.9167 251.421 44.75 250.837 47.4167C250.254 47.75 248.421 52.25 248.087 53.1667C247.587 53.5 247.254 54 247.171 54.5833L246.754 54.75L246.587 55.9167C244.921 56.5 246.421 58.6667 244.837 59L245.087 59.75L244.254 60.1667V60.75L243.921 60.9167H243.837C243.004 61.9167 242.421 63 241.587 64L241.421 65.0833C240.754 65.8333 239.837 66.9167 239.504 67.9167C239.004 68.25 238.671 68.9167 238.587 69.5L238.004 69.6667C237.921 70.25 237.587 70.5833 237.171 71L237.004 71.4167L236.837 71.5ZM196.754 64.4167H196.004C195.754 65.9167 195.421 67.6667 194.504 68.9167V69.0833L194.921 69.8333L194.671 71.5L194.921 71.5833L194.754 72.75L195.337 73.5833H195.421V74.4167C194.921 74.25 194.671 73.8333 194.337 73.5L194.004 72.75L194.171 74.25L194.587 75H194.671L195.504 75.4167L195.754 75.75H196.254L196.754 75.5H196.837C197.587 75.75 198.004 76 198.587 76.5833C199.337 76.75 200.171 76.6667 200.921 76.8333C201.421 76.4167 202.171 76.8333 202.587 76.25H203.171C204.837 76.25 204.254 76 205.587 75.5L206.087 75.6667C206.337 75.25 206.337 74.5833 206.254 74.1667L206.671 73.25L207.504 73.6667C207.671 73.8333 208.004 73.5 207.921 73.3333L208.337 73L209.171 73.0833L209.254 73.6667L210.671 73.0833L210.337 72.8333C210.254 73.3333 209.671 72.5 209.587 72.4167L209.671 72.3333L210.587 72L210.754 71.3333L211.587 70.75L212.337 70.5833L213.004 69.9167L213.254 70.3333L212.587 71.25C212.171 71.3333 211.837 71.5 211.504 71.75L212.587 71.4167V71.3333L213.504 71.0833L213.671 70.0833L215.004 68.8333H215.087C215.754 68.3333 216.587 67.9167 217.171 67.25C217.421 66.5833 218.254 65.9167 218.671 65.25L219.171 65.0833V65L219.504 64.6667C219.671 64.75 219.754 64.5 219.837 64.4167C220.421 63.75 221.171 63.3333 221.837 62.6667C222.171 62.6667 222.504 62.6667 222.754 62.75L222.837 62.6667V62L223.337 61.4167L223.671 60.5L224.004 60.1667L224.421 60.0833L225.421 58.5833C225.837 58.3333 225.754 57.9167 225.921 57.5L226.337 57.1667C227.004 55.9167 228.004 54.6667 229.004 53.6667V52.9167H229.254L229.504 52.0833C230.587 51 231.504 48.9167 232.504 47.6667C232.671 47.0833 232.921 46.5833 233.254 46.0833C234.004 45.9167 234.004 44.8333 234.171 44.25C235.004 43.5 237.004 35.25 237.087 34.75C236.837 34 236.421 33.3333 235.754 32.8333L235.087 33L232.921 31.6667L232.087 31.8333L231.587 31.5833L231.421 31L230.587 31.1667L229.921 30.6667L229.504 30.8333C229.171 30.6667 228.671 30.75 228.254 30.75L227.171 30.1667L226.837 30.4167L227.337 31C226.754 31.0833 226.254 31.25 225.754 31.4167C225.337 31.8333 224.671 32.0833 224.254 32.5833L222.754 33.0833V33.1667C222.421 33.6667 222.004 34.0833 221.504 34.4167H222.087L223.004 34.8333L223.504 34.5C223.671 34.5 223.671 34.5833 223.671 34.75C223.671 34.9167 223.504 35.1667 223.337 35.3333C221.587 35.5833 215.921 39.25 214.587 40.8333C214.004 41.0833 213.587 41.4167 213.254 41.9167C211.754 42.6667 210.671 44.5 209.254 45.0833C209.087 45.0833 208.671 45.75 208.587 45.8333L207.837 46.25C207.254 47.5 202.921 51.9167 201.421 54.1667L201.004 54.25C200.921 54.75 200.087 55.5 199.754 55.9167L200.087 56C199.171 57.1667 197.504 60.6667 196.921 62.25L196.837 63L197.087 63.5833L196.754 64.4167ZM233.754 72.9167C234.004 72.0833 234.171 71.3333 234.337 70.5L233.837 70.9167C233.837 71.1667 233.587 71.25 233.421 71.25C233.254 71.25 233.004 71.1667 232.837 71.0833C232.671 71.5833 232.587 72.0833 232.587 72.5833L231.754 72.75L231.671 72.9167L229.337 75.9167C228.587 76.1667 228.004 76.8333 227.254 77.1667C227.004 77.6667 226.171 78.5833 225.671 78.9167C225.171 79 224.837 79.25 224.421 79.5L223.004 81.1667H222.837L222.087 81.75L223.087 81.25C223.671 81.25 223.921 80.8333 224.254 80.4167L225.004 80.3333C225.837 80 226.754 79.1667 227.337 78.4167L227.254 79.75H227.337C228.171 79.75 228.254 78.6667 228.921 78.4167L230.087 77.0833V77.3333L230.837 76V75.9167L231.671 75.75L231.587 75.1667C232.504 74.5833 232.837 73.5 233.754 72.9167ZM215.004 85.9167C214.754 86.25 214.337 86.5 213.921 86.5H213.587L213.171 87H213.087L212.337 87.5833L211.671 87.5C211.504 88 211.171 88.5 210.754 88.75C212.421 88.4167 214.421 87.0833 216.004 86.4167L216.087 85.9167H215.004ZM208.504 90.8333L209.004 91.25L208.587 91.75C207.754 92.1667 206.754 92.75 205.754 92.75C205.254 93.0833 204.754 93.5 204.337 93.9167L204.087 93.25L204.837 92.8333C205.171 92.4167 205.671 92.3333 206.171 92.25L206.504 91.6667L207.337 91.5833L208.504 90.8333ZM178.587 67.9167C178.004 68.9167 177.671 71 177.504 72.1667L177.004 72.6667L177.587 73.0833L177.754 73.8333L178.171 72.6667L177.754 71.8333C177.921 71.25 178.421 70.1667 178.337 69.5833C178.587 69.25 178.837 68.8333 178.837 68.4167L178.587 67.9167ZM237.504 49.25C236.754 49.4167 236.587 50.4167 236.504 51.0833C236.171 51.0833 235.754 51.4167 235.421 51.5833L235.504 52C235.087 52.4167 234.671 52.8333 234.337 53.3333L234.671 53.8333C235.504 52.25 236.837 50.9167 237.754 49.3333L237.504 49.25ZM201.254 93.75H201.337L201.671 94.5833L200.837 95C200.171 94.8333 199.504 94.8333 198.837 94.75L199.087 94.1667C199.421 94.1667 199.754 94.0833 200.004 94.0833L200.587 94.4167L201.254 93.75ZM203.254 30.6667C203.671 30.75 204.087 30.8333 204.504 30.8333C205.421 30.8333 206.171 30.5833 206.921 30.5L207.254 30.1667L206.171 30.0833C205.171 30.0833 204.171 30.3333 203.254 30.6667ZM236.504 38.6667C236.337 39.5833 236.004 40.5833 236.004 41.5L236.087 42.3333C236.337 41.8333 236.421 41.3333 236.504 40.8333L236.921 40.1667L237.087 39.3333L236.504 38.6667ZM236.587 68.3333C237.421 67.8333 238.004 66 238.587 65.8333L239.004 65.0833L238.337 65L238.171 65.5833L237.837 66L237.421 66.25L237.004 67.3333C236.754 67.4167 236.587 68.1667 236.587 68.3333ZM242.087 60.3333L241.171 61.5C241.087 61.6667 240.921 62 240.921 62.25V63.1667C241.671 62.5 241.921 61.3333 242.087 60.3333ZM187.587 47.5C187.837 46.8333 188.254 46.25 188.421 45.5L188.837 46.1667L188.421 47.1667V47.3333L187.587 47.5ZM186.837 70.0833L186.921 71L186.671 71.75L187.087 72.4167V72.0833L187.504 71.5L187.171 70.6667L187.421 70.1667L186.837 70.0833ZM234.504 33.5L235.254 34.0833C235.004 34.4167 234.504 34.8333 234.087 35V34.25L234.504 33.5ZM176.504 79L177.171 79.75C177.004 80.1667 177.087 80.6667 177.171 81.0833H177.087L176.504 80.4167L176.421 79.8333L176.504 79ZM187.671 50C187.671 50.4167 187.171 51.1667 186.837 51.5L187.421 51.75V51.6667C187.671 51.1667 187.921 50.6667 188.254 50.1667L187.671 50ZM229.504 72.5L229.421 72.9167L228.921 73.5833L229.337 73.8333H229.587L229.837 73L230.171 72.5833L229.504 72.5ZM231.837 51.25L231.337 51.5833L230.921 52.1667L231.087 52.6667L231.254 52.3333L231.587 52.1667C231.837 51.75 231.921 51.25 232.087 50.75L232.004 50.4167L231.837 51.25ZM207.421 89L206.921 89.9167L207.587 89.5C207.921 89.5 208.254 89.4167 208.504 89.4167L208.671 89.0833L207.421 89ZM181.754 39.3333C181.671 39.9167 181.254 40.25 180.754 40.5833C180.671 40.3333 180.837 39.9167 180.921 39.6667L181.754 39.3333ZM215.004 66.1667H215.171C215.671 66.1667 215.837 66.5833 216.004 66.9167H215.171L215.004 66.1667ZM223.337 82.1667V82.4167C223.337 82.9167 222.921 83.1667 222.587 83.4167V82.75L223.337 82.1667ZM210.671 86.5L210.421 86.4167C210.004 86.5 209.421 86.75 209.087 87.0833L210.587 86.75L211.087 86.3333L210.671 86.5ZM187.254 67.5C186.837 67.5833 186.337 68.0833 186.087 68.4167L186.754 68.6667L186.504 68.3333C186.837 68.1667 187.087 67.8333 187.254 67.5ZM220.004 66H219.754C219.504 66 219.171 66.0833 218.921 66.1667L219.171 66.8333C219.337 66.5 219.671 66.25 220.004 66ZM228.004 62.8333L227.421 63.3333L227.837 63.6667C228.087 63.5 228.171 63.1667 228.337 63L228.004 62.8333ZM193.754 68.6667L193.587 69.5L193.921 70L194.087 69.25L193.754 68.6667ZM188.504 71.3333L188.337 71.8333L188.754 72.6667L188.837 72.0833L188.504 71.3333ZM214.337 84.6667L214.254 84.8333L214.171 85.6667L214.754 85.3333L214.337 84.6667ZM221.254 64.5833L220.671 66.1667L221.337 65.3333L221.254 64.5833ZM192.754 42.4167L192.004 42.75L192.337 43.0833L192.921 42.4167H192.754ZM229.337 54.4167L230.171 54.0833L230.587 53.25C230.254 53.6667 229.754 54.0833 229.337 54.4167ZM234.754 44.75L234.587 45.5L234.921 45.5833L235.004 45L234.754 44.75ZM211.837 86L212.171 86.0833L213.087 85.75H212.504L211.837 86ZM195.921 39.4167L196.087 40H196.587L195.921 39.4167ZM187.087 65.75L186.921 66.4167L187.087 66.9167C187.171 66.5833 187.171 66.0833 187.087 65.75ZM240.421 63.8333L240.587 65.0833L240.754 64.75L240.421 63.8333ZM180.504 81L180.837 81.1667L180.337 80.6667L180.504 81Z" fill="url(#paint0_linear_225_6)"/>
<defs>
<linearGradient id="paint0_linear_225_6" x1="176.5" y1="-25" x2="176.5" y2="134" gradientUnits="userSpaceOnUse">
<stop/>
<stop offset="1" stop-color="#FF0000"/>
</linearGradient>
</defs>
</svg>
