<svg width="55" height="60" viewBox="0 0 55 60" fill="none" xmlns="http://www.w3.org/2000/svg">
<path d="M48.125 56.25V15H37.8125V3.75H6.875V56.25H0V60H24.0625V48.75H30.9375V60H55V56.25H48.125ZM20.625 41.25H13.75V33.75H20.625V41.25ZM20.625 30H13.75V22.5H20.625V30ZM20.625 18.75H13.75V11.25H20.625V18.75ZM30.9375 41.25H24.0625V33.75H30.9375V41.25ZM30.9375 30H24.0625V22.5H30.9375V30ZM30.9375 18.75H24.0625V11.25H30.9375V18.75ZM44.6875 41.25H37.8125V33.75H44.6875V41.25ZM44.6875 30H37.8125V22.5H44.6875V30Z" fill="black" fill-opacity="0.5"/>
</svg>
