<svg width="30" height="30" viewBox="0 0 30 30" fill="none" xmlns="http://www.w3.org/2000/svg">
<path d="M15.2 13.5875C15.075 13.575 14.925 13.575 14.7875 13.5875C13.3527 13.5388 11.9933 12.9335 10.997 11.8999C10.0008 10.8663 9.44592 9.48555 9.44999 8.04999C9.44999 4.98749 11.925 2.49999 15 2.49999C15.728 2.48685 16.4515 2.61724 17.1291 2.88371C17.8067 3.15018 18.4252 3.5475 18.9493 4.053C19.4734 4.5585 19.8928 5.16227 20.1835 5.82985C20.4742 6.49742 20.6306 7.21572 20.6437 7.94374C20.6569 8.67175 20.5265 9.39523 20.26 10.0728C19.9936 10.7505 19.5962 11.369 19.0907 11.893C18.5852 12.4171 17.9815 12.8365 17.3139 13.1272C16.6463 13.418 15.928 13.5744 15.2 13.5875ZM8.94999 18.2C5.92499 20.225 5.92499 23.525 8.94999 25.5375C12.3875 27.8375 18.025 27.8375 21.4625 25.5375C24.4875 23.5125 24.4875 20.2125 21.4625 18.2C18.0375 15.9125 12.4 15.9125 8.94999 18.2Z" stroke="black" stroke-width="2.5" stroke-linecap="round" stroke-linejoin="round"/>
</svg>
