<svg width="25" height="25" viewBox="0 0 25 25" fill="none" xmlns="http://www.w3.org/2000/svg">
<path d="M21.875 6.22921C18.4062 5.88546 14.9167 5.70837 11.4375 5.70837C9.375 5.70837 7.3125 5.81254 5.25 6.02087L3.125 6.22921M8.85417 5.17712L9.08333 3.81254C9.25 2.82296 9.375 2.08337 11.1354 2.08337H13.8646C15.625 2.08337 15.7604 2.86462 15.9167 3.82296L16.1458 5.17712M19.6354 9.52087L18.9583 20.0105C18.8438 21.6459 18.75 22.9167 15.8437 22.9167H9.15625C6.25 22.9167 6.15625 21.6459 6.04167 20.0105L5.36458 9.52087M10.7604 17.1875H14.2292M9.89583 13.0209H15.1042" stroke="black" stroke-width="2.5" stroke-linecap="round" stroke-linejoin="round"/>
</svg>
